<?xml version="1.0" standalone="no"?>
<!DOCTYPE svg PUBLIC "-//W3C//DTD SVG 1.1//EN" "http://www.w3.org/Graphics/SVG/1.1/DTD/svg11.dtd" >
<svg xmlns="http://www.w3.org/2000/svg" xmlns:xlink="http://www.w3.org/1999/xlink" version="1.1">
<metadata>
Created by FontForge 20170718 at Mon Nov 26 16:18:50 2018
 By PengJiyuan
</metadata>
<defs>
<font id="icons" horiz-adv-x="512" >
  <font-face 
    font-family="icons"
    font-weight="400"
    font-stretch="normal"
    units-per-em="512"
    panose-1="2 0 5 9 0 0 0 0 0 0"
    ascent="448"
    descent="-64"
    bbox="-3 -67 515 451"
    underline-thickness="25"
    underline-position="-76"
    unicode-range="U+F101-F1AA"
  />
<missing-glyph 
d="M17 0v341h136v-341h-136zM34 17h102v307h-102v-307z" />
    <glyph glyph-name=".notdef" 
d="M17 0v341h136v-341h-136zM34 17h102v307h-102v-307z" />
    <glyph glyph-name=".null" horiz-adv-x="0" 
 />
    <glyph glyph-name="nonmarkingreturn" 
 />
    <glyph glyph-name="account-charge" unicode="&#xf101;" 
d="M243 -6v40q-30 3 -48.5 12.5t-31.5 31t-16 52.5l40 7q5 -32 16 -47q17 -21 40 -23v125q-24 5 -50 19q-19 11 -29 29.5t-10 41.5q0 42 30 68q20 18 59 22v19h23v-19q34 -3 55 -20q25 -22 31 -59l-41 -6q-4 23 -15 35.5t-30 16.5v-114q30 -7 39 -11q19 -9 30.5 -20.5
t18 -27.5t6.5 -34q0 -41 -26.5 -68.5t-67.5 -29.5v-40h-23zM243 339q-23 -3 -36 -18t-13 -35q0 -21 11 -34.5t38 -21.5v109zM266 67q23 3 38 20t15 42q0 21 -10.5 34.5t-42.5 23.5v-120zM493 -64h-474q-8 0 -13.5 5.5t-5.5 12.5v238h32v-224h448v224h32v-238
q0 -7 -5.5 -12.5t-13.5 -5.5z" />
    <glyph glyph-name="active-yes" unicode="&#xf102;" 
d="M202 7l-1 1v-1l-196 189l40 38l156 -151l271 262l40 -38z" />
    <glyph glyph-name="active" unicode="&#xf103;" 
d="M224 96h-1l-111 107l22 22l89 -86l155 149l22 -22zM256 416q-93 0 -158.5 -65.5t-65.5 -158.5t65.5 -158.5t158.5 -65.5t158.5 65.5t65.5 158.5t-65.5 158.5t-158.5 65.5zM256 448q106 0 181 -75t75 -181t-75 -181t-181 -75t-181 75t-75 181t75 181t181 75z" />
    <glyph glyph-name="add-notice" unicode="&#xf104;" 
d="M408 -64q43 0 73.5 30.5t30.5 73.5v304q0 43 -30.5 73.5t-73.5 30.5h-304q-43 0 -73.5 -30.5t-30.5 -73.5v-304q0 -43 30.5 -73.5t73.5 -30.5h304zM112 405h287q29 0 49.5 -20.5t20.5 -49.5v-286q0 -19 -9 -35.5t-25.5 -25.5t-35.5 -9h-287q-28 0 -48.5 20.5t-20.5 49.5
v286q0 29 20.5 49.5t48.5 20.5zM235 213h-86q-9 0 -15 -6t-6 -15t6 -15t15 -6h86v-86q0 -9 6 -15t15 -6t15 6t6 15v86h86q9 0 15 6t6 15t-6 15t-15 6h-86v86q0 9 -6 15t-15 6t-15 -6t-6 -15v-86z" />
    <glyph glyph-name="app-center" unicode="&#xf105;" 
d="M224 48h-224v224h224v-224zM32 80h160v160h-160v-160zM512 320h-128v128h128v-128zM416 352h64v64h-64v-64zM512 -64h-128v128h128v-128zM416 -32h64v64h-64v-64zM389 353l22 -24l-192 -181l-22 24zM216 174l192 -112l-16 -28l-192 112z" />
    <glyph glyph-name="applications" unicode="&#xf106;" 
d="M418 141h-324q-9 0 -15.5 6.5t-6.5 16t6.5 16t15.5 6.5h324q9 0 15.5 -6.5t6.5 -16t-6.5 -16t-15.5 -6.5zM478 258h-444q-10 0 -16.5 6t-6.5 16q0 6 3 11.5t8 8t12 2.5h444q10 0 16.5 -6t6.5 -16q0 -3 -1 -6t-2.5 -5.5t-3.5 -4.5t-4.5 -3.5t-5 -2t-6.5 -0.5zM418 43h-324
q-9 0 -15.5 6.5t-6.5 16t6.5 16t15.5 6.5h324q9 0 15.5 -6.5t6.5 -16t-6.5 -16t-15.5 -6.5zM205 384v32h99v-32h-99zM443 416q14 0 26.5 -6t21.5 -16t14.5 -24t6.5 -29v-330q0 -31 -20 -53t-47 -22h-378q-27 0 -47 22t-20 52v331q0 31 20 53t47 22h63v-32h-39
q-16 0 -30 -8.5t-21.5 -23.5t-7.5 -34v-284q0 -28 17.5 -47t41.5 -19h330q25 0 42 19.5t17 46.5v284q0 28 -17.5 47t-41.5 19h-42v32h64zM168 349h-2q-7 0 -12 5t-5 12v64q0 8 5 13t12 5h2q7 0 12.5 -5t5.5 -13v-64q1 -7 -4.5 -12t-13.5 -5zM344 349h-2q-7 0 -12 5t-5 12v64
q0 8 5 13t12 5h2q7 0 12.5 -5t5.5 -13v-64q0 -7 -5.5 -12t-12.5 -5z" />
    <glyph glyph-name="arch" unicode="&#xf107;" 
d="M455 28l41 -78q-94 53 -134 68q-32 11 -60 16q7 36 -1.5 68.5t-31.5 48.5q-13 9 -23 7q-24 -4 -37.5 -25t-14.5 -47t2 -52q-31 -2 -74.5 -20t-74.5 -37l-46 -26v1l75 135q17 30 34 62t39.5 77.5t31.5 63.5l4 -3l13 -10q21 -13 53 -27q-2 2 -3 2q0 1 -3 3q-14 9 -57 51
l18 37l29 73l13 31l49 -112l86 -174l54 -100q-40 22 -67 26l3 -1t4 -2l45 -29zM154 -50v1h-2z" />
    <glyph glyph-name="arrow-down" unicode="&#xf108;" 
d="M489 320l23 -25l-256 -231l-256 231l23 25l233 -210z" />
    <glyph glyph-name="arrow-left" unicode="&#xf109;" 
d="M384 -41l-25 -23l-231 256l231 256l25 -23l-210 -233z" />
    <glyph glyph-name="arrow-right" unicode="&#xf10a;" 
d="M128 425l25 23l231 -256l-231 -256l-25 23l210 233z" />
    <glyph glyph-name="arrow-up" unicode="&#xf10b;" 
d="M489 64l-233 210l-233 -210l-23 25l256 231l256 -231z" />
    <glyph glyph-name="associate" unicode="&#xf10c;" 
d="M480 17v188h32v-188q0 -13 -9.5 -23t-22.5 -10h-448q-13 0 -22.5 10t-9.5 23v188h32v-188h448zM373 233l19 -26l-135 -106l-137 106l19 26l101 -78v245h32v-246z" />
    <glyph glyph-name="avatar" unicode="&#xf10d;" 
d="M135 262q0 14 12 19q-6 20 -6 41q0 52 33.5 89t81.5 37t81.5 -37t33.5 -89q0 -21 -6 -41q12 -5 12 -19q0 -9 -6 -15.5t-14 -6.5q-3 -44 -32.5 -79t-68.5 -35t-68.5 35t-32.5 79q-8 0 -14 6.5t-6 15.5zM509 -5q3 -4 3 -8v-40q0 -4 -3 -7.5t-8 -3.5h-490q-5 0 -8 3.5
t-3 7.5v40q0 4 3 8q74 73 171 97h2h5q2 0 5 -1q29 -16 70 -16t70 16q3 1 5 1h6q3 0 5 -1q95 -24 167 -96z" />
    <glyph glyph-name="backup" unicode="&#xf10e;" 
d="M178 48v32h134v-32h-134zM178 144v32h134v-32h-134zM114 144v32h32v-32h-32zM114 48v32h32v-32h-32zM114 240v32h32v-32h-32zM178 240v32h134v-32h-134zM373 368q13 0 22.5 -9.5t9.5 -22.5v-314v-2v-52q0 -13 -9.5 -22.5t-22.5 -9.5h-23h-1h-23h-8h-268q-14 0 -23 9.5
t-9 22.5v52v2v314q0 13 9 22.5t23 9.5h268h8h23h1h23zM373 22v314h-23h-1h-23h-8h-268v-314v-2v-52h268h8h23h1h23v54zM498 102v-2v-52h-32v54v314h-23h-2h-23h-8h-268h-2v32h1h1h268h8h23h2h23q13 0 22.5 -9.5t9.5 -22.5v-314z" />
    <glyph glyph-name="billing-record" unicode="&#xf10f;" 
d="M480 368q13 0 22.5 -9t9.5 -22v-290q0 -13 -9.5 -22t-22.5 -9h-448q-13 0 -22.5 9t-9.5 22v290q0 13 9.5 22t22.5 9h448zM480 337h-448v-65h448v65zM480 48h1l-1 128h-448v-128h448zM96 128h128v-32h-128v32zM288 128h128v-32h-128v32z" />
    <glyph glyph-name="billing" unicode="&#xf110;" 
d="M420 0h-392q-12 0 -20 8t-8 19v254q0 8 3.5 14t10 9.5t14.5 3.5h392q6 0 11 -2t9 -5.5t6 -8.5t2 -11v-254q0 -11 -8 -19t-20 -8zM420 281l-392 -1v-253l392 1h1zM28 224h392v-84h-392v84zM86 98h112v-28h-112v28zM252 98h112v-28h-112v28zM490 74h-47v32h37v235h-369v-42
h-32v52q0 4 1 7t3 6t5 5t6 3t7 1h389q9 0 15.5 -6.5t6.5 -15.5v-256q0 -6 -3 -11t-8 -7.5t-11 -2.5z" />
    <glyph glyph-name="bucket" unicode="&#xf111;" 
d="M512 368v-3l-1 -1h1v-345q0 -27 -39 -46.5t-95.5 -28t-121.5 -8.5t-121.5 8.5t-95.5 28t-39 46.5v345h1l-0.5 1.5t-0.5 2.5q0 39 77 59.5t179 20.5t179 -20.5t77 -59.5zM256 416q-68 0 -122 -9.5t-78 -20t-24 -18.5t24 -19t78 -20t122 -9t122 9t78 20t24 19q0 3 -4.5 7
t-14 8.5t-23 9t-32.5 9t-41 7.5t-50 5t-59 2zM256 -32q68 0 122 10t78 21t24 20v308q-69 -39 -224 -39t-224 39v-308q0 -9 24 -20t78 -21t122 -10z" />
    <glyph glyph-name="bw-in" unicode="&#xf112;" 
d="M213.5 -50q82.5 0 140.5 58.5t58 140.5q0 109 -189 281l-10 9l-9 -9q-190 -172 -190 -281q0 -82 58.5 -140.5t141 -58.5zM213 -21q-46 0 -85.5 22.5t-62 62t-22.5 85.5q0 45 43.5 109.5t126.5 141.5q171 -158 171 -251q0 -70 -50 -120t-121 -50zM243 129l-16 -16v125
q0 6 -4 10t-10 4t-10 -4t-4 -10v-124l-16 15q-10 10 -20 0t0 -19l40 -39q1 -2 4 -3v0q3 -1 6 -1t5 1h1q2 1 4 3l40 39q8 9 -1 18t-19 1v0z" />
    <glyph glyph-name="bw-out" unicode="&#xf113;" 
d="M213.5 -50q82.5 0 140.5 58.5t58 140.5q0 109 -189 281l-10 9l-9 -9q-190 -172 -190 -281q0 -82 58.5 -140.5t141 -58.5zM213 -21q-46 0 -85.5 22.5t-62 62t-22.5 85.5q0 45 43.5 109.5t126.5 141.5q171 -158 171 -251q0 -70 -50 -120t-121 -50zM243 190l-16 16v-125
q0 -6 -4 -10t-10 -4t-10 4t-4 10v125l-16 -16q-10 -10 -20 0t0 19l40 39q1 2 4 3v0q3 1 6 1t5 -1h1q2 -1 4 -3l40 -39q8 -9 -1 -18t-19 -1v0z" />
    <glyph glyph-name="cache-config" unicode="&#xf114;" 
d="M333 448l131 -132v-380h-416v512h285zM80 -32h352v335l-113 113h-239v-448zM334 248q13 -18 17 -40h33v-32h-33q-4 -22 -17 -40l23 -23l-22 -23l-24 24q-17 -13 -39 -17v-33h-32v33q-22 4 -40 17l-23 -24l-23 23l24 23q-13 18 -17 40h-33v32h33q4 22 17 39l-24 24l22 23
l24 -24q18 13 40 17v33h32v-33q22 -4 40 -17l23 24l23 -23zM192 192q0 -26 19 -45t45 -19t45 19t19 45t-19 45t-45 19t-45 -19t-19 -45z" />
    <glyph glyph-name="cache" unicode="&#xf115;" 
d="M333 448l131 -132v-380h-416v512h285zM432 -32v332l-114 116h-238v-448h352zM120 280q0 16 17 26.5t43.5 14.5t43.5 5.5t32 1.5t32 -1.5t43.5 -5.5t43.5 -14.5t17 -26.5v-1v-1v-173q0 -16 -18 -27.5t-46 -15.5t-44 -5t-28 -1q-9 0 -20 0.5t-33.5 3t-39 7.5t-30 15
t-13.5 23v173v1v1zM360 195v52q-38 -15 -104 -15t-104 15v-52q6 -7 34.5 -13.5t69.5 -6.5t69.5 6.5t34.5 13.5zM152 108q6 -7 34.5 -13.5t69.5 -6.5t69.5 6.5t34.5 13.5v51q-39 -16 -104 -16t-104 16v-51zM256.5 264q71.5 0 99.5 16q-29 16 -100 16t-100 -16
q29 -16 100.5 -16z" />
    <glyph glyph-name="calendar" unicode="&#xf116;" 
d="M322 198h58v-58h-58v58zM227 198h58v-58h-58v58zM132 198h58v-58h-58v58zM227 113h58v-58h-58v58zM132 113h58v-58h-58v58zM426 356q15 0 25.5 -10.5t11.5 -25.5v-35v-14v-255l-1 -4q-1 -13 -11.5 -22.5t-24.5 -9.5h-340q-14 0 -24.5 9.5t-11.5 22.5l-1 259v26v23
q1 15 11.5 25.5t25.5 10.5h33h9h14v-34q0 -3 2 -6.5t5 -5.5t7 -2v96h58v-48h99v-34q0 -5 4 -9.5t9 -4.5v96h58v-48h19h5h18zM424 20v213h-336v-213h336zM424 20z" />
    <glyph glyph-name="cc-video" unicode="&#xf117;" 
d="M80 19v15l-13 -16q-9 10 -15 16v-83h-27v72q-8 -9 -17 -18q-3 16 -8 32q26 27 38 50h-36v28h35q-9 13 -23 30l22 15q11 -12 25 -31l-22 -14h30v-25q-5 -13 -14 -27q13 -11 25 -21v108h115v-129h-29v102h-58v-104h-28zM181 13q17 -7 28 -12q-5 -34 -12 -40t-17 -6h-21
q-25 0 -25 23v25q-16 -32 -55 -52q-8 11 -20 24q37 16 50.5 41t12.5 94h29q0 -45 -6 -75h15v-47q0 -9 7 -9h4q4 0 6 4.5t4 29.5zM264 54l22 -8q-10 -28 -20 -48q-11 6 -21 10q9 17 19 46zM329 50l20 -12v72h28l3 16h-37v26h109v-26h-45l-4 -16h42v-105h-24v79h-48v-79h-24
v27q-29 -55 -87 -80q-6 10 -17 25q34 10 56 31h-11v55h25v-37q7 10 14 24zM246 89h10v52h24v-52h13v71h25v-29h22v-23h-22v-19h25v-23h-97v23zM385 75h24v-8q0 -35 -6 -57q29 -19 50 -37l-17 -21q-19 18 -43 36q-14 -20 -43 -37q-10 12 -19 22q35 16 46 36q8 17 8 59v7z
M176 380q-9 9 -18 14q-10 6 -20 6q-13 0 -24 -5t-18.5 -13.5t-11.5 -19t-4 -22t4 -22.5t11.5 -19t18.5 -13t24 -5q12 0 21.5 4.5t17.5 14.5l33 -36q-8 -7 -17.5 -12.5t-19.5 -8.5q-10 -4 -19 -5t-16 -1q-22 0 -42 7t-34 21t-22.5 33t-8.5 42.5t8.5 42.5t22.5 32.5t34 21
t42 7.5q19 0 38 -7t34 -23zM373 380q-8 9 -18 14q-9 6 -19 6q-14 0 -24.5 -5t-18 -13.5t-11.5 -19t-4 -22t4 -22.5t11.5 -19t18 -13t24.5 -5q11 0 21 4.5t17 14.5l33 -36q-7 -7 -17 -12.5t-19 -8.5q-10 -4 -19.5 -5t-15.5 -1q-22 0 -42 7t-34.5 21t-23 33t-8.5 42.5
t8.5 42.5t23 32.5t34.5 21t42 7.5q19 0 38 -7t34 -23z" />
    <glyph glyph-name="centos" unicode="&#xf118;" 
d="M249 243v149h-54l2 3l56 53l59 -56h-52v-150l-6 -5l-5 5v1zM113 334l-38 -36v79h83l-36 -35l110 -105v-8h-9zM277 237l111 106l-35 34h81v-77l-37 35l-111 -106h-9v8zM169 318q-1 1 -26 24l7.5 7.5l9 9t9.5 10t9 8.5h54v-119l-18 16q-6 7 -21.5 21.5t-23.5 22.5zM277 258
v119h52l36 -35l-80 -76zM308 229l89 85l37 -36v-49h-58.5h-67.5zM201 229h-126v47l38 37l2 -2zM450 263l57 -54l-57 -55v48h-158l-6 6h1l6 6h157v49zM217 202l-158 -1v-49l-57 54l57 55v-47h158q5 -5 5 -6t-5 -6zM75 136v50h126l-89 -85zM232 178l-111 -106l35 -34h-81v77
l37 -35q75 71 111 106h9v-8zM286 186l110 -105l38 36v-79h-83l2 2l34 33l-110 105v8h9zM434 139l-38 -36l-88 83h126v-47zM261 172l-1 -149h52l-58 -57l-60 57h55l-1 149l6 5zM232 157v-119h-54l-35 33l75 71zM343 92q2 -1 10 -9.5t10 -10.5l-35 -34h-51v118z" />
    <glyph glyph-name="charge-record" unicode="&#xf119;" 
d="M243 -6v40q-30 3 -48.5 12.5t-31.5 31t-16 52.5l40 7q5 -32 16 -47q17 -21 40 -23v125q-24 5 -50 19q-19 11 -29 29.5t-10 41.5q0 42 30 68q20 18 59 22v19h23v-19q34 -3 55 -20q25 -22 31 -59l-41 -6q-4 23 -15 35.5t-30 16.5v-114q30 -7 39 -11q19 -9 30.5 -20.5
t18 -27.5t6.5 -34q0 -41 -26.5 -68.5t-67.5 -29.5v-40h-23zM243 339q-23 -3 -36 -18t-13 -35q0 -21 11 -34.5t38 -21.5v109zM266 67q23 3 38 20t15 42q0 21 -10.5 34.5t-42.5 23.5v-120zM493 -64h-474q-8 0 -13.5 5.5t-5.5 12.5v238h32v-224h448v224h32v-238
q0 -7 -5.5 -12.5t-13.5 -5.5zM384 448h128v-32h-128v32zM384 384h128v-32h-128v32zM384 320h128v-32h-128v32z" />
    <glyph glyph-name="close" unicode="&#xf11a;" 
d="M480 394l-202 -202l202 -202l-22 -22l-202 202l-202 -202l-22 22l202 202l-202 202l22 22l202 -202l202 202z" />
    <glyph glyph-name="cloud-video" unicode="&#xf11b;" 
d="M32 376q-8 0 -8 -8v-256q0 -8 8 -8h336q8 0 8 8v256q0 8 -8 8h-336zM32 400h336q13 0 22.5 -9.5t9.5 -22.5v-256q0 -13 -9.5 -22.5t-22.5 -9.5h-336q-13 0 -22.5 9.5t-9.5 22.5v256q0 13 9.5 22.5t22.5 9.5zM200 278v-80l62 40zM207 174q-7 -5 -15 -3t-13 9q-3 5 -3 11
v94q0 9 6 14.5t14 5.5q6 0 11 -3l73 -47q7 -5 8.5 -13t-2.5 -15l-6 -6zM444 213l34 -36q2 -2 5 0q1 1 1 2v118q0 4 -3 4q-2 0 -3 -1l-34 -38v-49zM508 326v-174q0 -7 -5 -11.5t-11.5 -4.5t-11.5 5l-60 62v68l60 66q11 12 23 1q5 -5 5 -12zM64 328v8h59q8 0 8 -8v-8h-59
q-8 0 -8 8zM64 304v8h59q8 0 8 -8v-8h-59q-8 0 -8 8zM64 280v8h59q8 0 8 -8v-8h-59q-8 0 -8 8zM234 77l-10 7l-34 -53l10 -6l10 -7l34 52zM164 81l-10 14l-20 -14l54 -73l19 15l-32 43zM80 -4q0 -28 28 -28h168q16 0 22 6.5t6 29.5q0 28 -28 28h-168q-28 0 -28 -28v-8z" />
    <glyph glyph-name="collaboration" unicode="&#xf11c;" 
d="M194 176q-56 0 -96 40t-40 96t40 96t96 40t96 -40t40 -96t-40 -96t-96 -40zM194 416q-43 0 -73.5 -30.5t-30.5 -73.5t30.5 -73.5t73.5 -30.5t73.5 30.5t30.5 73.5t-30.5 73.5t-73.5 30.5zM34 -63h-32q0 59 13.5 107.5t33.5 78t44.5 50t44.5 28.5t35 8v-32q-8 0 -22.5 -6
t-35.5 -23t-38.5 -42t-30 -69.5t-12.5 -99.5zM379 -63h-32q0 46 -8.5 85t-22.5 64t-30 44t-32 28.5t-27.5 14t-18.5 4.5v32q16 0 36 -8t44 -28.5t44 -50t33.5 -78t13.5 -107.5zM416 351h32v-160h-32v160zM352 287h160v-32h-160v32z" />
    <glyph glyph-name="copy" unicode="&#xf11d;" 
d="M429 415q13 0 22 -9t9 -22v-328q0 -13 -9 -22.5t-22 -9.5h-40v-24q0 -13 -9 -22t-22 -9h-275q-13 0 -22 9t-9 22v328q0 9 4.5 16t11.5 11.5t15 4.5h61q7 19 28 19h32v5q0 13 9 22t22 9h194zM172 358q-10 0 -10 -9.5t10 -9.5h97q10 0 10 9.5t-10 9.5h-97zM369 0v328
q0 3 -1.5 5.5t-4 4t-5.5 1.5h-60q-7 -21 -29 -21h-97q-22 0 -29 21h-60q-4 0 -7 -3t-3 -8v-328q0 -3 1.5 -5.5t4 -4t4.5 -1.5h275q5 0 8 3t3 8zM439 56v328q0 2 -1 4t-2 3.5t-3 2.5t-4 1h-194q-4 0 -7.5 -3t-3.5 -8v-5h45q21 0 29 -19h60q7 0 12.5 -2.5t9.5 -7t6.5 -10
t2.5 -12.5v-283h40q4 0 7 3t3 8zM310 281q5 0 8 -3t3 -7.5t-3 -7.5t-8 -3h-180q-2 0 -4.5 1.5t-4 4t-1.5 5.5q0 4 3 7t7 3h180zM310 221q5 0 8 -3t3 -7.5t-3 -7.5t-8 -3h-180q-4 0 -7 3t-3 7.5t3 7.5t7 3h180zM220 161q2 0 4 -1t3.5 -2t2.5 -3t1 -4q0 -5 -3 -8t-8 -3h-90
q-4 0 -7 3t-3 7.5t3 7.5t7 3h90z" />
    <glyph glyph-name="coreos" unicode="&#xf11e;" 
d="M256 448q106 0 181 -75t75 -181t-75 -181t-181 -75t-181 75t-75 181t75 181t181 75zM352 126q63 10 100 27t37 39q0 96 -68 164.5t-163 68.5q-31 0 -55.5 -44t-33.5 -114q-3 -2 -3 -9q-4 -30 -4 -45v-21v-21q1 -7 1.5 -15t1.5 -16t1 -14q39 -4 62 -4h28h28q23 0 62 4h6z
M352 258q19 -29 19 -64q0 -11 -23 -21q-22 -10 -60 -13q-11 -2 -34 -2q-7 0 -18 1t-16 1q-2 11 -2 34q0 7 1 18t1 16q4 26 6 37q10 44 28 44q56 0 89 -40q7 -7 9 -11z" />
    <glyph glyph-name="correct" unicode="&#xf11f;" 
d="M499 448l13 -35q-67 -72 -131 -166t-105.5 -173.5t-60.5 -137.5l-215 253l55 52l124 -113q54 73 135.5 160t184.5 160z" />
    <glyph glyph-name="cpu" unicode="&#xf120;" 
d="M354 310q9 0 14.5 -5.5t5.5 -14.5v-196q0 -9 -5.5 -14.5t-14.5 -5.5h-196q-9 0 -14.5 5.5t-5.5 14.5v196q0 9 5.5 14.5t14.5 5.5h196zM492 172h-39v-59h39q8 0 14 -5.5t6 -14t-6 -14t-14 -5.5h-39v-40q0 -16 -11.5 -27.5t-28.5 -11.5h-39v-39q0 -8 -6 -14t-14 -6t-13.5 6
t-5.5 14v39h-59v-39q0 -8 -6 -14t-14 -6t-14 6t-6 14v39h-59v-39q0 -8 -5.5 -14t-14.5 -6q-5 0 -9.5 2.5t-7 7t-2.5 10.5v39h-40q-16 0 -27.5 11.5t-11.5 27.5v40h-39q-8 0 -14 5.5t-6 14t6 14t14 5.5h39v59h-39q-8 0 -14 6t-6 14t6 14t14 6h39v59h-39q-6 0 -10.5 2.5t-7 7
t-2.5 9.5q0 9 6 14.5t14 5.5h39v40q0 10 5.5 19t14.5 14.5t19 5.5h40v39q0 8 5.5 14t14 6t14 -6t5.5 -14v-39h59v39q0 8 6 14t14 6t14 -6t6 -14v-39h59v39q0 8 5.5 14t13.5 6t14 -6t6 -14v-39h39q17 0 28.5 -11.5t11.5 -27.5v-40h39q8 0 14 -5.5t6 -14t-6 -14t-14 -5.5h-39
v-59h39q8 0 14 -6t6 -14t-6 -14t-14 -6zM413 34v296q0 8 -5.5 14t-13.5 6h-296v-296q0 -8 6 -14t14 -6h295z" />
    <glyph glyph-name="create" unicode="&#xf121;" 
d="M256 -64q-106 0 -181 75t-75 181t75 181t181 75t181 -75t75 -181t-75 -181t-181 -75zM256 416q-93 0 -158.5 -65.5t-65.5 -158.5t65.5 -158.5t158.5 -65.5t158.5 65.5t65.5 158.5t-65.5 158.5t-158.5 65.5zM384 208v-32h-112v-112h-32v112h-112v32h112v112h32v-112h112z
" />
    <glyph glyph-name="database-config" unicode="&#xf122;" 
d="M256 288q-102 0 -179 20.5t-77 59.5t77 59.5t179 20.5t179 -20.5t77 -59.5t-77 -59.5t-179 -20.5zM256 416q-68 0 -122 -9t-78 -20t-24 -19t24 -19t78 -20t122 -9t122 9t78 20t24 19t-24 19t-78 20t-122 9zM256 -64q-102 0 -179 21.5t-77 61.5h32q0 -9 24 -20t78 -21
t122 -10t122 10t78 21t24 20h32q0 -40 -77 -61.5t-179 -21.5zM480 364h32v-345h-32v345zM0 364h32v-345h-32v345zM256 32q-40 0 -68 28t-28 68t28 68t68 28t68 -28t28 -68t-28 -68t-68 -28zM256 192q-26 0 -45 -19t-19 -45t19 -45t45 -19t45 19t19 45t-19 45t-45 19z
M240 256h32v-48h-32v48zM240 48h32v-48h-32v48zM335 230l23 -23l-34 -34l-23 23zM188 83l23 -23l-34 -34l-23 23zM176 230l34 -34l-22 -23l-34 34zM323 83l34 -34l-22 -23l-34 34zM128 144h48v-32h-48v32zM336 144h48v-32h-48v32z" />
    <glyph glyph-name="database" unicode="&#xf123;" 
d="M256 288q-102 0 -179 20.5t-77 59.5t77 59.5t179 20.5t179 -20.5t77 -59.5t-77 -59.5t-179 -20.5zM256 416q-68 0 -122 -9.5t-78 -20t-24 -18.5t24 -19t78 -20t122 -9t122 9t78 20t24 19q0 3 -4.5 7t-14 8.5t-23 9t-32.5 9t-41 7.5t-50 5t-59 2zM256 -64
q-102 0 -179 21.5t-77 61.5h32q0 -9 24 -20t78 -21t122 -10t122 10t78 21t24 20h32q0 -40 -77 -61.5t-179 -21.5zM256 111q-102 0 -179 21.5t-77 60.5h32q0 -8 24 -19.5t78 -21t122 -9.5t122 9.5t78 21t24 19.5h32q0 -39 -77 -60.5t-179 -21.5zM480 364h32v-345h-32v345z
M0 364h32v-345h-32v345z" />
    <glyph glyph-name="debian" unicode="&#xf124;" 
d="M373 226l-5 -9q2 6 3 14t1 14.5t-0.5 15t0.5 13.5h-2q-1 32 -24.5 63.5t-51.5 43.5q-22 10 -52 12t-46 -6q2 1 7 3q4 2 5 2q-12 -1 -19.5 -3t-10 -4.5t-8.5 -5t-14 -4.5q-3 -3 1 -2q1 0 4 1q5 1 5 0.5t-5 -3.5q-3 -1 -8.5 -1.5t-9 -1t-9.5 -4.5t-13 -11q0 -1 5 1q3 2 1 0
q-1 -2 -3 -4q-8 1 -24 -10.5t-28 -25t-17 -21.5l4 -1q-3 -8 -10.5 -21.5t-8.5 -19.5q0 -5 -2 -23t-2.5 -28.5t1 -23t6.5 -17.5l-2 -13q0 -1 2 -5t4 -6h-3q4 -15 8 -19.5t6.5 -3t7.5 -3.5t11 -20q-5 2 -9 7q-1 -7 14 -25l-4 -4q3 -5 11 -11q-10 5 4 -14l9 -12l4 -6l3 4
q-1 -8 13 -24h7q3 -4 9.5 -10t11.5 -6l-5 -6q9 -3 14 -7t16 -7l-5 7q1 -1 10.5 -10t18.5 -14q9 -3 15.5 -4t13.5 -2t16 -4q-41 1 -54 5q-75 20 -129.5 94t-49.5 157q-1 13 -0.5 24.5t0.5 21.5t-2 12q12 38 25 64q3 -4 9 6q10 22 12 26l3 1q1 7 9.5 16t20.5 19t15 14v-5
q7 7 19 13.5t20.5 10.5t23 10t17.5 7q-2 -2 1 -2q2 0 9 1l15 3q-1 -1 -3.5 -2t-4.5 -2.5t-4 -2.5q7 2 15.5 1t15.5 0l-11 -4q7 -1 18.5 1.5t18.5 -1.5l-1 5q7 -3 17 -5.5t17 -5.5t18 -9q2 0 10 2t13 -2q1 0 1 -1t0.5 -1.5t1.5 -2t2 -2.5t4 -2.5t7 -4.5q1 1 -1 3t-7 6
q26 -13 49 -38.5t30 -53.5q-2 5 -4 6v-6q1 -8 0 -7q6 -18 10 -37q-10 36 -21 51q0 -3 -6.5 -2.5t-0.5 -12.5q3 -4 4 -1q1 2 3 -2q1 -2 1 -3q0 -4 2 -11.5t3 -11.5q-1 0 -2.5 2.5t-3 4t-1.5 0.5q3 -15 7 -18l-2 -6q0 -6 1 -8.5t1.5 -2.5t2 0.5t2.5 0.5q-1 -3 -3 -7.5t-3 -7.5
t-1.5 -9t1.5 -10q-1 1 -5 13q-1 -3 -0.5 -14.5t-2.5 -16.5q4 20 -1 21q1 -9 -3 -18t-8 -16.5t-3 -12.5l-5 6q-8 -10 -7 -14t-3 -11q2 2 1 3.5t2 5.5q-1 0 -5 -3.5t-9 -8.5t-9 -8q-55 -43 -127 -18q-1 0 1.5 -2.5t6 -5t7.5 -4.5q18 -6 50 -5q-17 -6 -38.5 -1.5t-43 18.5
t-31.5 31q2 -1 13.5 -13.5t18.5 -15.5q-8 7 -17 20q14 -17 33 -25l0.5 3.5t-3.5 3.5q-31 24 -43.5 46t-7.5 60q2 1 7.5 15.5t12.5 18.5q6 13 22 23t35 10q36 2 58 -27q-15 14 -37 17t-43 -7q-21 -9 -33 -29.5t-10 -43.5q2 2 3 4q-1 -43 37.5 -70t75.5 -10v-1q7 2 11 4t6 3.5
t5.5 4.5t7.5 6l-3 -3q-2 -4 -1 -5q3 1 34 28q2 4 1.5 7t2.5 9l7 4q9 23 9 31z" />
    <glyph glyph-name="delete" unicode="&#xf125;" 
d="M256 -64q-106 0 -181 75t-75 181t75 181t181 75t181 -75t75 -181t-75 -181t-181 -75zM256 416q-93 0 -158.5 -65.5t-65.5 -158.5t65.5 -158.5t158.5 -65.5t158.5 65.5t65.5 158.5t-65.5 158.5t-158.5 65.5zM358 271l-79 -79l79 -79l-23 -23l-79 79l-79 -79l-23 23l79 79
l-79 79l23 23l79 -79l79 79z" />
    <glyph glyph-name="deploy" unicode="&#xf126;" 
d="M67 448l-67 -75q0 31 20 53t47 22zM0 373l67 75h376q28 0 48 -22t21 -53v-362q0 -31 -20 -53t-47 -22h-378q-27 0 -47 22t-20 52v363zM91 416q-16 0 -30 -8.5t-21.5 -23.5t-7.5 -34v-316q0 -28 17.5 -47t41.5 -19h330q25 0 42 19.5t17 46.5v316q0 28 -17.5 47t-41.5 19
h-330zM139 104q-8 0 -14.5 6t-6.5 14.5t6.5 15t14.5 6.5h96v96q0 8 6.5 14t14.5 6t14.5 -6t6.5 -14v-96h96q8 0 14.5 -6.5t6.5 -15t-6.5 -14.5t-14.5 -6h-96v-96q0 -8 -6.5 -14.5t-14.5 -6.5t-14.5 6.5t-6.5 14.5v96h-96zM21 290v64q0 30 21.5 51.5t51.5 21.5h322
q20 0 37 -10t27 -27t10 -36v-64h-469z" />
    <glyph glyph-name="disable" unicode="&#xf127;" 
d="M256 439q102 0 174.5 -72.5t72.5 -174.5t-72.5 -174.5t-174.5 -72.5t-174.5 72.5t-72.5 174.5t72.5 174.5t174.5 72.5zM469 192q0 58 -28.5 107t-77.5 77.5t-107 28.5q-78 0 -138 -51l300 -300q51 60 51 138zM43 192q0 -88 62.5 -150.5t150.5 -62.5q78 0 138 51l-300 300
q-51 -60 -51 -138z" />
    <glyph glyph-name="dissociate" unicode="&#xf128;" 
d="M374 126l19 -26l-136 -102l-138 102l19 26l102 -76v238h32v-239zM480 384q13 0 22.5 -9.5t9.5 -22.5v-160h-32v160h-448v-160h-32v160q0 13 9.5 22.5t22.5 9.5h448z" />
    <glyph glyph-name="doc" unicode="&#xf129;" 
d="M404 448l95 -95h-76q-8 0 -13.5 5.5t-5.5 12.5v77zM496 332h9v-345q0 -21 -15 -36t-36 -15h-267q-21 0 -36 15t-15 36v26h25v-26q0 -10 7.5 -17.5t18.5 -7.5h267q11 0 18.5 7.5t7.5 17.5v320h-65q-16 0 -29.5 8t-21 22t-7.5 29v2v54h-170q-11 0 -18.5 -7.5t-7.5 -17.5
v-154h-25v154q0 21 15 36t36 15h195v-80v-2q0 -13 10 -23t23 -11h81zM384 243q21 0 36 -15t15 -36v-128q0 -21 -15 -36t-36 -15h-333q-21 0 -36 15t-15 36v128q0 21 15 36t36 15h333zM52 69v116h41q61 0 61 -56v-3q0 -24 -18 -40q-18 -17 -42 -17h-2h-40zM78 165v-77h14h2
q15 0 25 11q9 11 9 25v4v2q0 15 -10 25q-12 10 -26 10h-2h-12zM167 126v2q0 24 16 42q16 17 40 17h2h2q23 0 38 -16q15 -17 15 -40v-3v-2q0 -24 -16 -42q-16 -17 -39 -17h-2h-2q-23 0 -38 16q-16 17 -16 40v3zM193 127q-1 -1 -1 -2q0 -14 8 -26q9 -10 22 -10h1.5h0.5
q13 0 22 10q8 11 8 25v2.5v2.5q0 15 -8 26t-21 11h-1h-1q-13 0 -22 -10q-8 -12 -8 -26v-3zM384 73q-14 -6 -30 -6h-3h-5q-23 0 -39 16q-15 16 -15 39v2.5v2.5q0 25 17 43q18 17 42 17h2.5h2.5q13 0 26 -4v-24q-12 7 -26 7h-1q-16 0 -26 -11q-10 -12 -10 -27v-1.5v-1.5
q0 -15 9 -26q11 -10 25 -10h1q15 0 28 7z" />
    <glyph glyph-name="docx" unicode="&#xf12a;" 
d="M404 448l95 -95h-76q-8 0 -13.5 5.5t-5.5 12.5v77zM496 332h9v-345q0 -21 -15 -36t-36 -15h-267q-21 0 -36 15t-15 36v26h25v-26q0 -10 7.5 -17.5t18.5 -7.5h267q11 0 18.5 7.5t7.5 17.5v320h-65q-16 0 -29.5 8t-21 22t-7.5 29v2v54h-170q-11 0 -18.5 -7.5t-7.5 -17.5
v-154h-25v154q0 21 15 36t36 15h195v-80v-2q0 -13 10 -23t23 -11h81zM384 243q21 0 36 -15t15 -36v-128q0 -21 -15 -36t-36 -15h-333q-21 0 -36 15t-15 36v128q0 21 15 36t36 15h333zM47 82v90h30q47 0 47 -43v-2q0 -19 -13 -32q-14 -13 -33 -13h-1h-30zM66 156v-58h11h1
q12 0 20 8q8 9 8 20v2v2q0 11 -8.5 18.5t-19.5 7.5h-1h-11zM135 126v2q0 19 12 32q13 14 31 14h1.5h1.5q17 0 29 -13t12 -31v-2v-2q0 -18 -12 -32q-13 -13 -31 -13h-1q-18 0 -30 13q-13 13 -13 32zM155 127v-1q0 -11 6 -20q7 -8 17.5 -8t17.5 8q6 8 6 19v2v2q0 11 -6 20
q-6 8 -16 8h-0.5h-1.5q-10 0 -16 -8q-7 -9 -7 -21v-1zM301 86q-11 -5 -24 -5h-2h-2q-17 0 -30 12q-13 13 -13 31v1.5v1.5q0 19 14 33q13 14 32 14h2h1q11 0 21 -4v-18q-9 5 -20 5h-0.5h-1.5q-12 0 -20 -9q-7 -8 -7 -20v-1.5v-1.5q0 -11 7 -20q8 -8 19 -8l1 1h1q11 0 21 5z
M389 82h-23l-16 30l-2 6l-2 -6l-16 -30h-23l29 45l-26 45h23l13 -27q2 -4 3 -8l3 8l15 27h21l-27 -44z" />
    <glyph glyph-name="domain" unicode="&#xf12b;" 
d="M18 12zM16 365zM32 256v160h160v-160h-160zM16 224h192h16v16v192v16h-16h-192h-16v-16v-192v-16h16zM320 256v160h160v-160h-160zM304 224h192h16v16v192v16h-16h-192h-16v-16v-192v-16h16zM32 -32v160h160v-160h-160zM16 -64h192h16v16v192v16h-16h-192h-16v-16v-192
v-16h16zM320 -32v160h160v-160h-160zM304 -64h192h16v16v192v16h-16h-192h-16v-16v-192v-16h16z" />
    <glyph glyph-name="double-arrow-left" unicode="&#xf12c;" 
d="M487 448l25 -23l-210 -233l210 -233l-25 -23l-231 256zM231 448l25 -23l-210 -233l210 -233l-25 -23l-231 256z" />
    <glyph glyph-name="double-arrow-right" unicode="&#xf12d;" 
d="M0 425l25 23l231 -256l-231 -256l-25 23l210 233zM256 425l25 23l231 -256l-231 -256l-25 23l210 233z" />
    <glyph glyph-name="download" unicode="&#xf12e;" 
d="M256 -64q-106 0 -181 75t-75 181t75 181t181 75t181 -75t75 -181t-75 -181t-181 -75zM256 416q-93 0 -158.5 -65.5t-65.5 -158.5t65.5 -158.5t158.5 -65.5t158.5 65.5t65.5 158.5t-65.5 158.5t-158.5 65.5zM288 168h80l-112 -112l-112 112h80v160h64v-160z" />
    <glyph glyph-name="dropdown" unicode="&#xf12f;" 
d="M384 64h-256l256 256v-256z" />
    <glyph glyph-name="edit" unicode="&#xf130;" 
d="M430 344q5 -6 0 -11l-205 -204l-2 -1l-115 -64q-2 -1 -4 -1q-3 0 -6 3q-4 4 -1 9l61 117l209 205q6 6 11 0zM214 141l-1 -1l-43 42h1l-26 -49q4 -16 18 -20zM0 16h512v-32h-512v32z" />
    <glyph glyph-name="empty" unicode="&#xf131;" 
d="M299 21q-7 0 -12 6.5t-5 15.5v215q0 9 5 15.5t12 6.5t12.5 -6.5t5.5 -15.5v-215q0 -22 -18 -22zM193.5 24q-7.5 0 -12.5 6.5t-5 15.5v213q0 10 5 16.5t12.5 6.5t12.5 -6.5t5 -16.5v-213q0 -9 -5 -15.5t-12.5 -6.5zM355 -64h-208q-20 0 -34 14.5t-15 36.5l-21 287
q0 9 6 17t15 8q8 0 16 -6.5t8 -15.5l20 -287q0 -6 7 -6h208q6 0 6 6l18 290q0 9 7 15.5t17 6.5q9 0 15 -7.5t6 -17.5l-18 -290q-1 -21 -16.5 -36t-36.5 -15zM438 338h-384q-5 0 -10 2.5t-7.5 7t-2.5 10.5q0 10 6 15.5t14 5.5h84v19q-1 15 5 26t17.5 17.5t26.5 6.5h119
q20 0 34.5 -14.5t14.5 -35.5v-20h83q9 0 15 -6t6 -15q0 -19 -21 -19zM174 374h143v28q0 3 -2 7t-5 4h-126q-6 0 -6 -11v-26h-4v-2z" />
    <glyph glyph-name="enable" unicode="&#xf132;" 
d="M331 2h-32q0 50 16 77t60 66l21 -20q-38 -34 -51.5 -59t-13.5 -64zM213 2h-32q0 39 -13.5 64t-51.5 59l22 25q29 -26 43.5 -44t23 -43.5t8.5 -60.5zM137 105q-35 28 -54 67.5t-19 83.5q0 79 56.5 135.5t135.5 56.5t135.5 -56.5t56.5 -135.5q0 -29 -8.5 -56.5t-24.5 -51.5
t-39 -42l-19 23q27 21 43 56.5t16 70.5q0 66 -46.5 113t-112.5 47t-113.5 -47.5t-47.5 -112.5q0 -34 17 -68.5t45 -56.5zM181 256h-32q0 44 31.5 75.5t75.5 31.5l1 -32q-33 0 -54.5 -21.5t-21.5 -53.5zM305 -64h-98q-11 0 -18.5 8.5t-7.5 21.5v41h32v-44h86v45h32v-42
q0 -13 -7.5 -21.5t-18.5 -8.5zM207 18h97v-32h-97v32zM197 77h119v-32h-119v32z" />
    <glyph glyph-name="epc-suse" unicode="&#xf133;" 
d="M85 161q-32 4 -53.5 34t-17.5 64q4 62 68 114q87 68 178 60q46 0 113 -22q-1 16 8.5 17t25.5 -5.5t22 -5.5q3 -1 10 -3t11 -3.5t10 -4t10 -5.5t8.5 -6.5t7 -8.5t4.5 -11q9 -14 7.5 -31t-20.5 -19q-6 -3 -13.5 -4t-14.5 0.5t-13 4t-13 6t-12.5 7t-13 8t-12.5 6.5
q1 -1 2 -4.5t1.5 -5t1.5 -4t2 -4t2.5 -3t3.5 -2.5t5 -2q52 -31 87 -9q8 3 7 -2q0 -11 -15 -21q-6 -4 -10 -2q-22 -11 -51.5 -11.5t-54.5 3.5q-20 0 -20.5 -24.5t10.5 -39.5q12 -20 3 -15l-7 4q-11 3 -20.5 10.5t-23 23t-16.5 18.5q-17 15 -39 15.5t-34 -17.5q-3 -5 -4 -12
t-1 -12t0.5 -12.5t0.5 -11.5q-21 11 -29 17q-6 36 -32.5 60.5t-58.5 18.5q-25 -1 -40 -26t-5 -51q7 -24 29.5 -34t41.5 1q13 7 15.5 22t-5.5 28t-22 14q-16 5 -19 -12q-3 -15 10 -16q4 0 9 3q18 -10 3 -21q-17 -12 -29 -2l-3 3q-17 12 -14.5 35.5t21.5 30.5q26 14 51.5 -8.5
t22.5 -55.5q-3 -32 -26.5 -48.5t-49.5 -10.5zM463 336q14 6 16.5 21.5t-6 28t-22.5 10.5q-20 1 -27 -23.5t12 -34.5q11 -13 27 -2zM444 344q-20 7 -11 29q8 18 23 14q5 -2 9 -7q11 -13 2.5 -28t-23.5 -8zM460 365q3 7 -1 10q-5 3 -12 -4q-8 -7 8 -8h3zM161 8q-30 5 -26 64
q0 25 2 29q17 18 26 -7q5 -14 2 -28q1 -3 0.5 -13.5t1.5 -13.5q2 -4 7 -5t9.5 -0.5t9.5 -0.5h6h7.5t5.5 1.5t5 4.5v28t3 34q20 13 25 -7t1 -41q0 -36 -1 -43q-4 -6 -9 -6.5t-8.5 2.5t-8.5 6t-9 2q-2 -1 -8.5 -2.5t-10 -2.5t-9 -2t-11 -0.5t-10.5 1.5zM19 10q-4 7 -4 17.5
t9 7.5h59q14 18 -1.5 24.5t-32.5 2.5q-18 -3 -28.5 13.5t-4.5 34.5q2 18 16.5 24.5t31.5 4.5q4 0 14 0.5t16.5 0t11 -5.5t2.5 -16q0 -4 -3.5 -4.5t-9.5 0.5t-8 0h-14.5h-15.5t-11.5 -5.5t-2.5 -15.5q8 -6 33.5 -6t34.5 -11q9 -16 5.5 -37t-19.5 -29q-6 -3 -19 -3t-16 -1h-41
zM271 10q-4 5 -4 16.5t9 8.5h59q14 17 -0.5 25t-30.5 2q-18 -4 -30 11.5t-7 35.5q5 35 54 30q30 0 35 -2q8 -4 6 -19q-2 -6 -6 -6q-46 0 -56 -2q-4 -6 -4.5 -11t2.5 -7.5t7 -3.5t10 -1.5t11.5 -0.5h10.5t8 -1q18 -1 23 -22.5t-2 -36.5q-11 -23 -33 -20h-57zM444 62h-26
q-2 -15 4.5 -23t20.5 -4h38v-3q0 -7 -0.5 -11.5t-3.5 -9t-8 -3.5q-50 0 -59 2q-10 4 -15 14.5t-5.5 18.5t-0.5 23v4q0 2 -0.5 13t0 16.5t2 14t5.5 13.5t10 9q25 5 71 1q17 -6 21 -29t-3 -40q-6 -5 -14.5 -6t-19.5 0t-17 0zM418 109q-3 -9 -1 -16.5t12 -5.5h41v8
q0 18 -20.5 20t-31.5 -6z" />
    <glyph glyph-name="exe" unicode="&#xf134;" 
d="M404 448l95 -95h-76q-8 0 -13.5 5.5t-5.5 12.5v77zM496 332h9v-345q0 -21 -15 -36t-36 -15h-267q-21 0 -36 15t-15 36v26h25v-26q0 -10 7.5 -17.5t18.5 -7.5h267q11 0 18.5 7.5t7.5 17.5v320h-65q-16 0 -29.5 8t-21 22t-7.5 29v2v54h-170q-11 0 -18.5 -7.5t-7.5 -17.5
v-154h-25v154q0 21 15 36t36 15h195v-80v-2q0 -13 10 -23t23 -11h81zM404 448l95 -95h-76q-8 0 -13.5 5.5t-5.5 12.5v77zM496 332h9v-345q0 -21 -15 -36t-36 -15h-267q-21 0 -36 15t-15 36v26h25v-26q0 -10 7.5 -17.5t18.5 -7.5h267q11 0 18.5 7.5t7.5 17.5v320h-65
q-16 0 -29.5 8t-21 22t-7.5 29v2v54h-170q-11 0 -18.5 -7.5t-7.5 -17.5v-154h-25v154q0 21 15 36t36 15h195v-80v-2q0 -13 10 -23t23 -11h81zM384 243q21 0 36 -15t15 -36v-128q0 -21 -15 -36t-36 -15h-333q-21 0 -36 15t-15 36v128q0 21 15 36t36 15h333zM154 69h-70v116
h66v-20h-41v-27h38v-20h-38v-28h45v-21zM268 69h-29l-21 39q-2 3 -2 7q-2 -4 -3 -7l-21 -39h-30l37 58l-34 58h30l18 -35q2 -5 3 -10l4 10l19 35h28l-35 -57zM351 69h-69v116h66v-20h-41v-27h39v-20h-39v-28h44v-21z" />
    <glyph glyph-name="eye" unicode="&#xf135;" 
d="M257 302q-38 0 -74.5 -8.5t-63 -20.5t-47 -26.5t-30.5 -27t-10 -20.5q0 -10 17 -26.5t45 -34t72 -29.5t91 -12q38 0 74.5 8t62.5 20.5t46.5 26.5t30.5 26.5t10 20.5q0 11 -16.5 27.5t-44.5 33.5t-72 29.5t-91 12.5zM256.5 334q50.5 0 99.5 -14t82.5 -34t54 -43.5
t20.5 -43.5q0 -27 -33.5 -58t-94.5 -53.5t-128 -22.5t-128.5 22.5t-95 53.5t-33.5 58q0 20 20.5 43.5t54 43.5t82.5 34t99.5 14zM256.5 241q-17.5 0 -29.5 -12t-12 -29.5t12 -30t29.5 -12.5t30 12.5t12.5 30t-12.5 29.5t-30 12zM257 273q30 0 52 -21.5t22 -52t-22 -52.5
t-52 -22q-20 0 -37 10t-27 27t-10 37q0 15 5.5 29t15.5 24t24 15.5t29 5.5z" />
    <glyph glyph-name="fedora" unicode="&#xf136;" 
d="M256 448q106 0 181 -75t75 -181t-75 -181t-181 -75h-198q-24 0 -41 17t-17 41v198q0 106 75 181t181 75zM70 -8q-1 1 0 3q0 33 29 48q-15 17 -15 40q0 39 34 57q-13 15 -13 35q0 12 5 23q-36 -12 -59.5 -43.5t-23.5 -71.5q0 -55 43 -91zM352 329q1 0 2 1q13 0 20.5 7.5
t7.5 19.5q0 3 -1 7t-3.5 7t-5.5 5.5t-6.5 4.5t-7.5 3q-13 4 -27 4q-24 0 -46.5 -9.5t-38.5 -25.5t-25.5 -38.5t-9.5 -46.5v-64h-50q-12 0 -20.5 -8t-8.5 -20q0 -8 4 -14t10.5 -10t13.5 -4h42h1h1h1q6 -2 6 -9v-55q0 -26 -18.5 -44.5t-44.5 -18.5h-12h-2l-2 1h-7
q-13 0 -21 -8t-8 -19q0 -10 7.5 -17.5t17.5 -10.5q13 -4 27 -4q49 0 84.5 35.5t35.5 85.5v63h50q12 0 20 8.5t8 20t-8 19.5t-20 8h-41h-1h-1l-0.5 0.5l-0.5 0.5q-6 1 -6 8v55q0 26 18.5 44.5t44.5 18.5h11q1 -1 2.5 -1h2.5h5zM369 153q36 12 59 43.5t23 70.5q0 56 -42 92v-3
q0 -34 -29 -48q15 -18 15 -41q0 -38 -35 -56q13 -16 13 -36q0 -12 -4 -22z" />
    <glyph glyph-name="file-sharing" unicode="&#xf137;" 
d="M404 -1h-351q-14 0 -21 10t-3 22l73 235q3 9 12 15.5t20 6.5h350q16 0 24 -11q6 -10 2 -21l-72 -228q-9 -29 -34 -29zM62 31h342q2 2 3 7l69 218h-342zM402 -1h-345q-12 0 -21 8.5t-10 20.5l-25 291q0 7 3 13t9 10t14 4h20q39 -1 85 -1l4 39h170l3 -34h47q49 -1 61 -1
q8 0 14.5 -3.5t10.5 -8.5t5 -11v-2l2 -41l-32 -2l-2 36q-7 0 -59 1h-51q-15 0 -22 8q-5 6 -5 13l-1 13h-112l-2 -15q0 -9 -6 -16q-7 -8 -18 -8q-55 0 -92 1h-14l2 -26l23 -257h344v-32zM177 191h174v-32h-174v32zM176 127h175v-32h-175v32zM303 239l48 -48l-23 -23l-48 48z
M199 117l47 -47l-22 -22l-48 47z" />
    <glyph glyph-name="file" unicode="&#xf138;" 
d="M435 344v-368q0 -17 -10 -28.5t-24 -11.5h-315q-15 0 -25 11.5t-10 28.5v432q0 17 10 28.5t25 11.5h246v-85q0 -12 6 -15.5t20 -3.5h77zM102 243h282v26h-282v-26zM102 166h282v26h-282v-26zM102 90h282v25h-282v-25zM102 13h282v25h-282v-25zM102 320h180v26h-180v-26z
M339 448l96 -96h-77q-8 0 -13.5 5.5t-5.5 12.5v78z" />
    <glyph glyph-name="filter-collapse" unicode="&#xf139;" 
d="M341 38h171v-34h-171v34zM508 430q7 -18 -12 -36l-170 -168v-164q0 -44 -23 -65l-49 -47q-15 -14 -31 -14q-8 0 -14 3q-21 9 -21 41v246l-172 168q-19 18 -12 36t33 18h438q26 0 33 -18zM222 236v-264l40 34l7.5 7.5l10.5 10.5t7.5 9.5t3.5 9.5v195l180 176h-432z" />
    <glyph glyph-name="filter-expand" unicode="&#xf13a;" 
d="M341 38h171v-34h-171v34zM410 107h34v-171h-34v171zM508 430q7 -18 -12 -36l-170 -168v-164q0 -44 -23 -65l-49 -47q-15 -14 -31 -14q-8 0 -14 3q-21 9 -21 41v246l-172 168q-19 18 -12 36t33 18h438q26 0 33 -18zM222 236v-264l40 34l3 3l4 4t4 4.5t4 4.5t4 4.5t3.5 4.5
l3 4t2 4.5t0.5 4.5v192l181 178h-432z" />
    <glyph glyph-name="flavor-setting" unicode="&#xf13b;" 
d="M302 -64h-92v66q-30 7 -56 23l-47 -47l-65 66l47 46q-16 26 -23 56h-66v92h66q7 30 23 56l-47 47l65 65l46 -47q27 16 57 23v66h92v-66q30 -7 56 -23l47 47l65 -66l-47 -46q16 -26 23 -56h66v-92h-66q-7 -30 -23 -57l46 -45l-65 -65l-46 46q-27 -16 -56 -23v-66zM242 -32
h28v60l13 2q37 7 67 28l11 8l43 -42l19 20l-42 42l8 11q22 31 28 68l3 13h60v28h-60l-2 13q-7 37 -29 68l-7 11l42 42l-20 20l-42 -42l-11 8q-31 21 -68 28l-13 2v60h-28v-60l-13 -2q-38 -7 -68 -29l-11 -8l-43 43l-20 -19l43 -44l-8 -11q-21 -30 -28 -67l-2 -13h-60v-28h60
l2 -13q7 -37 28 -68l8 -11l-42 -42l19 -20l43 42l11 -7q31 -22 68 -29l13 -2v-60zM256 63q-54 0 -91.5 37.5t-37.5 91.5t37.5 91.5t91.5 37.5t91.5 -37.5t37.5 -91.5t-37.5 -91.5t-91.5 -37.5zM256 289q-40 0 -68.5 -28.5t-28.5 -68.5t28.5 -68.5t68.5 -28.5t68.5 28.5
t28.5 68.5t-28.5 68.5t-68.5 28.5z" />
    <glyph glyph-name="flavor" unicode="&#xf13c;" 
d="M120 0v32h272v-32h-272zM176 32v64h32v-64h-32zM304 32v64h32v-64h-32zM478 96h-444q-14 0 -24 9.5t-10 23.5v286q0 14 10 23.5t24 9.5h444q14 0 24 -9.5t10 -23.5v-286q0 -14 -10 -23.5t-24 -9.5zM34 417q-2 0 -2 -2v-286q0 -2 2 -2h444q2 0 2 2v286q0 2 -2 2h-444z
M137 184zM136 360zM256 178q-40 0 -68 28t-28 67.5t28 67.5t68 28t68 -28t28 -68q0 -26 -13 -48t-35 -34.5t-48 -12.5zM256 337q-26 0 -45 -18.5t-19 -45t19 -45t45 -18.5t45 18.5t19 45t-19 45t-45 18.5zM240 353v48h32v-48h-32zM240 146v48h32v-48h-32zM301 341l34 34
l22 -23l-33 -34zM155 195l33 33l23 -22l-34 -34zM154 352l23 23l34 -34l-23 -23zM301 206l22 22l34 -33l-23 -23zM129 257v32h47v-32h-47zM336 257v32h47v-32h-47z" />
    <glyph glyph-name="floating-ip" unicode="&#xf13d;" 
d="M160 320h32v-208h-32v208zM480 228q0 -87 -49 -136h1l-40 -38l-125 -115l-3 -4l-145 124l-29 27h-1v1l-6 4l1 1q-52 48 -52 140q0 89 66.5 152.5t160.5 63.5t157.5 -63t63.5 -157zM370 77l34 33q22 19 33 52t11 66q0 80 -54 134t-135 54q-53 0 -98 -24.5t-71 -67
t-26 -92.5q0 -82 45 -120l31 -28l123 -105zM320 321q26 0 45 -19t19 -45.5t-19 -45t-45 -18.5h-64v-81h-32v209h96zM320 225q13 0 22.5 9.5t9.5 22.5t-9.5 22.5t-22.5 9.5h-64v-64h64z" />
    <glyph glyph-name="flv" unicode="&#xf13e;" 
d="M404 448l95 -95h-76q-8 0 -13.5 5.5t-5.5 12.5v77zM496 332h9v-345q0 -21 -15 -36t-36 -15h-267q-21 0 -36 15t-15 36v26h25v-26q0 -10 7.5 -17.5t18.5 -7.5h267q11 0 18.5 7.5t7.5 17.5v320h-65q-16 0 -29.5 8t-21 22t-7.5 29v2v54h-170q-11 0 -18.5 -7.5t-7.5 -17.5
v-154h-25v154q0 21 15 36t36 15h195v-80v-2q0 -13 10 -23t23 -11h81zM384 243q21 0 36 -15t15 -36v-128q0 -21 -15 -36t-36 -15h-333q-21 0 -36 15t-15 36v128q0 21 15 36t36 15h333zM156 165h-42v-30h40v-20h-40v-46h-25v116h67v-20zM244 69h-68v116h25v-95h44zM346 185
l-41 -116h-28l-40 116h27l26 -82q2 -5 2 -11q1 6 2 11l26 82h26z" />
    <glyph glyph-name="folder" unicode="&#xf13f;" 
d="M422 61q0 -10 -7 -16.5t-16 -6.5h-280l39 183q0 9 6.5 15.5t16.5 6.5h257q7 0 12 -3t8 -8t3 -11zM164 260h252v21q0 5 -2 9t-5 7t-7 4.5t-8 1.5h-135v20q0 10 -6.5 16.5t-15.5 6.5h-112q-9 0 -16 -6.5t-7 -16.5v-262l40 176q0 5 1.5 9t4.5 7t7 5t9 2v0z" />
    <glyph glyph-name="freebsd" unicode="&#xf140;" 
d="M48.5 127q-26.5 89 18.5 170.5t134 107.5q78 23 153 -10q-3 -5 -7 -10q-37 9 -44 -22q-5 -23 13 -55.5t49.5 -56t57 -23.5t30.5 24q3 11 -1 27q7 4 14 9q8 -17 13 -35q27 -89 -18 -170.5t-134 -107.5t-170.5 18.5t-108 133.5zM339 347v1q41 41 84.5 62.5t65.5 10.5
q15 -7 8.5 -30.5t-21 -49.5t-32.5 -47q-15 -15 -31 -29q-28 10 -47.5 31.5t-26.5 50.5zM14 395q-4 30 18 37.5t57 -10.5q17 -9 32 -22q-43 -30 -69 -77q-34 38 -38 72z" />
    <glyph glyph-name="g-admin" unicode="&#xf141;" 
d="M81 435q10 13 26 13h298q16 0 26 -13l45 -55q4 -5 2.5 -9t-7.5 -4h-430q-6 0 -7.5 3.5t2.5 9.5zM0 297q0 7 4.5 11.5t11.5 4.5h480q7 0 11.5 -4.5t4.5 -11.5v-129q0 -7 -4.5 -11.5t-11.5 -4.5h-480q-7 0 -11.5 4.5t-4.5 11.5v129zM0 82q0 4 2 7.5t6 6t8 2.5h480
q7 0 11.5 -5t4.5 -11v-130q0 -7 -4.5 -11.5t-11.5 -4.5h-480q-7 0 -11.5 4.5t-4.5 11.5v130zM154 243v-22q0 -6 4.5 -11t11.5 -5h172q7 0 11.5 5t4.5 11v22q0 7 -4.5 11.5t-11.5 4.5h-172q-7 0 -11.5 -4.5t-4.5 -11.5zM154 28v-22q0 -7 4.5 -11.5t11.5 -4.5h172
q7 0 11.5 4.5t4.5 11.5v22q0 4 -2 8t-5.5 6t-8.5 2h-172q-7 0 -11.5 -5t-4.5 -11z" />
    <glyph glyph-name="g-approval" unicode="&#xf142;" 
d="M171 371q0 32 25 54.5t60 22.5t60 -22.5t25 -54.5h155q7 0 11.5 -4.5t4.5 -11.5v-403q0 -7 -4.5 -11.5t-11.5 -4.5h-480q-7 0 -11.5 4.5t-4.5 11.5v403q0 7 4.5 11.5t11.5 4.5h155zM228 371h56q0 11 -8 18.5t-20 7.5t-20 -7.5t-8 -18.5zM370 237l-147 -147l40 -40
l147 147zM133 166l-37 -37l120 -120l37 37z" />
    <glyph glyph-name="g-bill" unicode="&#xf143;" 
d="M387 224v73q0 5 -3.5 8.5t-8.5 3.5t-9 -3.5t-4 -8.5v-89q0 -5 3.5 -8.5t9.5 -3.5h0.5h1.5h46q6 0 10 4t4 10q0 4 -2 7t-5 5t-7 2h-36zM450 379q-30 16 -63 16q-48 0 -87 -32h-284q-7 0 -11.5 4.5t-4.5 11.5v53q0 7 4.5 11.5t11.5 4.5h418q6 0 11 -4.5t5 -11.5v-53z
M335 64q25 -11 52 -11q26 0 51 10q12 -3 12 -15v-53q0 -7 -5 -11.5t-11 -4.5h-418q-7 0 -11.5 4.5t-4.5 11.5v53q0 7 4.5 11.5t11.5 4.5h319zM263 320q-23 -39 -25 -85h-222q-7 0 -11.5 4.5t-4.5 11.5v53q0 3 1.5 6t3.5 5t5 3.5t6 1.5h247zM240 192q8 -49 38 -85h-262
q-7 0 -11.5 4.5t-4.5 11.5v53q0 7 4.5 11.5t11.5 4.5h224zM387.5 366q25.5 0 48 -11t39.5 -30.5t27 -45.5t10 -55t-10 -55t-27 -45.5t-39.5 -30.5t-48 -11t-48.5 11t-40 30.5t-27 45.5t-10 55t10 55t27 45.5t40 30.5t48.5 11z" />
    <glyph glyph-name="g-calamari" unicode="&#xf144;" 
d="M445 448q27 0 47 -22t20 -53v-362q0 -31 -20 -53t-47 -22h-378q-27 0 -47 22t-20 52v363q0 31 20 53t47 22h303h3h72zM482 34v316q0 28 -17.5 47t-42.5 19h-48h-3h-278q-25 0 -42 -19t-17 -47v-316q0 -28 17.5 -47t41.5 -19h329q25 0 42.5 19.5t17.5 46.5zM323 48
q4 -14 10.5 -22t21.5 -16q-11 -12 -37 0q-22 8 -27 40q-5 40 19 64q0 3 4 3q28 26 28 64q0 35 -24 59t-59 24t-59 -24t-24 -59q0 -40 29 -64l3 -3q24 -26 19 -64q-2 -31 -27 -40q-7 -4 -13.5 -5t-10.5 -0.5t-7 1.5t-4 3l-2 1q23 16 29 38q3 21 -8 32l-3 3q-47 39 -47 98
q0 50 36.5 86.5t87.5 36.5q50 0 86.5 -36t36.5 -87q0 -61 -47 -98l-3 -3q-11 -11 -8 -32zM258 379q82 0 141 -58.5t62 -141.5q0 -96 -75 -157l-26 31q18 15 31.5 35t20.5 43t7 47q0 66 -47 113t-113 47t-113 -47t-47 -113q0 -78 59 -125l-25 -31q-36 29 -55.5 70t-19.5 87
q0 83 58.5 141.5t141.5 58.5zM216 179q0 17 12 29.5t30 12.5q8 0 15.5 -3.5t13.5 -9t9 -13t3 -16.5q0 -17 -12 -29t-29 -12q-9 0 -16.5 3t-13 8.5t-9 13.5t-3.5 16z" />
    <glyph glyph-name="g-dashboard" unicode="&#xf145;" 
d="M0 432q0 7 4.5 11.5t11.5 4.5h151q16 0 30 -8l72 -41q14 -8 30 -8h197q5 0 8.5 -2t5.5 -6t2 -8v-423q0 -6 -4.5 -11t-11.5 -5h-480q-7 0 -11.5 4.5t-4.5 11.5v480zM102 233v-25q0 -7 5 -11.5t12 -4.5h18q7 0 12 4.5t5 11.5v25q0 7 -5 11.5t-12 4.5h-18q-7 0 -12 -5
t-5 -11zM179 233v-25q0 -7 4.5 -11.5t11.5 -4.5h199q4 0 7.5 2t6 6t2.5 8v25q0 4 -2.5 8t-6 6t-7.5 2h-199q-6 0 -11 -5t-5 -11zM102 91v-25q0 -7 5 -11.5t12 -4.5h18q7 0 12 4.5t5 11.5v25q0 6 -5 11t-12 5h-18q-5 0 -8.5 -2.5t-6 -6t-2.5 -7.5zM179 91v-25q0 -7 4.5 -11.5
t11.5 -4.5h199q6 0 11 4.5t5 11.5v25q0 6 -5 11t-11 5h-199q-4 0 -8 -2.5t-6 -6t-2 -7.5z" />
    <glyph glyph-name="g-ec2" unicode="&#xf146;" 
d="M443 448q28 0 48 -22t21 -53v-362q0 -31 -20 -53t-47 -22h-378q-27 0 -47 22t-20 52v363q0 31 20 53t47 22h376zM480 34v316q0 28 -17.5 47t-41.5 19h-330q-16 0 -30 -8.5t-21.5 -23.5t-7.5 -34v-316q0 -28 17.5 -47t41.5 -19h330q25 0 42 19.5t17 46.5zM357 173
q8 0 13.5 -5.5t5.5 -14t-5.5 -14t-13.5 -5.5q-6 0 -10.5 2.5t-6.5 7t-2 10.5q0 8 5.5 13.5t13.5 5.5zM357 294q8 0 13.5 -5t5.5 -13.5t-5.5 -14t-14 -5.5t-13.5 5.5t-5 13.5t5.5 13.5t13.5 5.5zM408 355q12 0 21.5 -8.5t10.5 -21.5v-221q0 -12 -8.5 -21t-21.5 -9h-138v-21
l3 -3l3.5 -3.5l3.5 -3.5h100q9 0 14.5 -5.5t5.5 -13.5t-5.5 -13.5t-14.5 -5.5h-249q-9 0 -14 5.5t-5 13.5t5 13.5t14 5.5h93q1 2 4.5 5t4.5 5v21h-129q-8 0 -15 3.5t-11.5 10.5t-4.5 16v221q0 6 2.5 11.5t6.5 9.5t9.5 6.5t12.5 2.5h302zM398 128h2v51q0 6 -4.5 11t-11.5 5
h-256q-7 0 -11.5 -5t-4.5 -12v-50q0 -6 4.5 -11t11.5 -5h254q4 0 8 2t6 5.5t2 8.5zM398 251h2v50q0 4 -2 7.5t-5.5 6t-8.5 2.5h-256q-16 0 -16 -16v-50q0 -6 4.5 -11t11.5 -5h254q7 0 11.5 4.5t4.5 11.5z" />
    <glyph glyph-name="g-grafana" unicode="&#xf147;" 
d="M509 302q10 -15 -5 -27l-178 -125q-9 -3 -11 -3q-5 0 -11 3l-117 82l-158 -110q-7 -4 -11 -4q-9 0 -15 8q-9 15 5 26l168 118q6 4 11 4v0q5 0 11 -4l117 -81l168 118q7 3 11 3q9 0 15 -8zM32 229l-32 -19v163q0 31 20 53t47 22h376q28 0 48 -22t21 -53v-5l-32 -21v3
q0 28 -17.5 47t-41.5 19h-330q-16 0 -30 -8.5t-21.5 -23.5t-7.5 -34v-121zM480 194l32 19v-202q0 -31 -20 -53t-47 -22h-378q-27 0 -47 22t-20 52v44l32 20v-40q0 -28 17.5 -47t41.5 -19h330q25 0 42 19.5t17 46.5v160z" />
    <glyph glyph-name="g-rds" unicode="&#xf148;" 
d="M443 448q28 0 48 -22t21 -53v-362q0 -31 -20 -53t-47 -22h-378q-27 0 -47 22t-20 52v363q0 31 20 53t47 22h376zM480 34h2v56q-9 -4 -26 -9.5t-75.5 -15t-122.5 -9.5q-61 0 -116 8.5t-76.5 15t-33.5 11.5v-57q0 -28 17.5 -47t41.5 -19h330q25 0 42 19.5t17 46.5zM256 94
q29 0 57.5 2t50 5t41 6.5t33 7t23.5 6.5t15.5 5l5.5 2v104q-84 -34 -224 -34q-138 0 -226 36v-106q90 -34 224 -34z" />
    <glyph glyph-name="g-storage" unicode="&#xf149;" 
d="M383 268q7 1 14 1q48 0 81.5 -39.5t33.5 -95.5q0 -34 -13.5 -63t-37 -48t-51.5 -22v-1h-256v1q-7 -1 -13 -1q-59 0 -100 48t-41 116q0 57 30 101.5t77 58.5q11 54 49 89t87 35q38 0 70.5 -22t51.5 -60t19 -82q0 -8 -1 -16zM205 112v-112h77v112h-77zM243 196l-89 -84h179
z" />
    <glyph glyph-name="g-subaccount" unicode="&#xf14a;" 
d="M23 448h482v-452h-482v452zM218 117v49q-1 15 -10.5 27t-22.5 13q-34 3 -69 0q-11 -1 -19.5 -9.5t-10.5 -21.5q-1 -4 -3 -58h135zM151 329q-11 0 -20.5 -6t-15 -16.5t-5.5 -23.5q0 -19 12 -32.5t29 -13.5t29 13.5t12 33.5q0 19 -12 32t-29 13zM354 177h70q20 0 20 14
q1 16 -19 16h-142q-20 0 -19 -16q0 -14 20 -14h70zM353 117h71q20 0 20 14q1 15 -19 16q-64 0 -144 -1q-9 0 -13 -4q-7 -10 -3 -15q6 -9 16 -10h72zM426 237q19 1 18 15q0 15 -17 15q-43 1 -86 0q-8 0 -13 -4.5t-4 -11.5q2 -14 18 -14h43h41z" />
    <glyph glyph-name="g-ticket" unicode="&#xf14b;" 
d="M26 433q0 6 4.5 10.5t10.5 4.5h319q15 0 26 -10l111 -101q11 -10 11 -25v-331q0 -6 -4.5 -10.5t-10.5 -4.5h-452q-4 0 -7.5 2t-5.5 5.5t-2 7.5v452zM80 288v-18q0 -6 4.5 -10.5t10.5 -4.5h157q6 0 10.5 4.5t4.5 10.5v18q0 7 -4.5 11t-10.5 4h-157q-4 0 -7.5 -2t-5.5 -5.5
t-2 -7.5zM80 192v-18q0 -6 4.5 -10.5t10.5 -4.5h345q3 0 5.5 1t4.5 3t3.5 5t1.5 6v18q0 4 -2 7.5t-5.5 5.5t-7.5 2h-345q-4 0 -7.5 -2t-5.5 -5.5t-2 -7.5zM80 95v-17q0 -7 4.5 -11.5t10.5 -4.5h345q6 0 10.5 4.5t4.5 11.5v17q0 7 -4.5 11.5t-10.5 4.5h-345q-4 0 -7.5 -2
t-5.5 -5.5t-2 -8.5zM348 385v-67q0 -6 4 -10.5t11 -4.5h77q6 0 7 3t-3 7l-85 77q-5 4 -8 2.5t-3 -7.5z" />
    <glyph glyph-name="g-union" unicode="&#xf14c;" 
d="M436 32q-3 -13 -7 -21q-12 -19 -33 -25q-3 -1 -46 -1h-37h-171h-43q-20 0 -23 1q-12 3 -25 12q-16 12 -19 34q-1 6 -1 23v42v186v46q0 21 1 24q3 16 13 28q11 15 34 18h15h28h180v15v15h-174q-53 0 -61 -2q-31 -9 -47 -29q-13 -16 -19 -40q-1 -8 -1 -31v-46v-183v-45
q0 -20 1 -27q3 -17 10.5 -30t18.5 -22q17 -14 38 -18q5 -1 30 -1h51h155h39q51 0 61 3q31 10 47 37q7 11 13 33q1 7 1 25v42v97h-29v-160zM282 103q3 0 11.5 0.5t12 0.5t9 -1t8 -4t2.5 -8q2 -4 -1 -7q-4 -6 -8 -7q-2 -1 -12 -1h-23h-150q-10 5 -10 6q-4 6 -1.5 12t8.5 8
q4 1 16 1h31h107zM325 179q2 -3 -2 -7q-2 -4 -5 -6t-8.5 -2.5t-9 -0.5h-11h-10.5h-149q-9 4 -12 8q-2 6 0.5 12t7.5 9q4 1 16 1h31h108h20q22 0 24 -14zM496 394q10 0 14 -9t-2 -17q-13 -13 -25.5 -26t-22 -23t-19 -20.5t-21.5 -23t-25 -25.5q-6 -6 -17 -18t-16 -18
q-11 -10 -17 -9q-8 1 -25 21q-9 10 -27.5 29t-27.5 29q-1 0 -5 4t-5 6l-3 6t-1.5 7.5t3.5 7.5q1 2 6 4q3 1 5.5 1t4 -0.5t4 -2t3.5 -3t3 -3.5l3 -3q21 -21 64 -66q20 21 45.5 48t45.5 48q23 23 33 34q4 5 12 13l7 6q1 1 3 1.5t3 1.5zM220 282h-54h-26h-3.5h-5h-3.5
q-5 -2 -8.5 -9t-0.5 -14q3 -4 11 -7h106z" />
    <glyph glyph-name="g-vmware" unicode="&#xf14d;" 
d="M347 122h-174q-15 0 -25 10t-10 25v176q0 7 2.5 13.5t7.5 11t11.5 7.5t13.5 3h174q14 0 24 -10.5t10 -24.5v-176q0 -15 -10 -25t-24 -10zM173 350q-7 0 -12.5 -5t-5.5 -12v-176q0 -7 5.5 -12.5t12.5 -5.5h174q4 0 8 2.5t6.5 6.5t2.5 9v176q0 7 -5 12t-12 5h-174zM289 16
h-174q-15 0 -25 10.5t-10 24.5v176q0 10 4.5 18t12.5 12.5t18 4.5h174q14 0 24 -10t10 -25v-176q0 -9 -4.5 -17.5t-12.5 -13t-17 -4.5zM115 245q-7 0 -12.5 -5.5t-5.5 -12.5v-176q0 -5 2.5 -9t6.5 -6t9 -2h174q7 0 12 5t5 12v176q0 7 -5 12.5t-12 5.5h-174zM397 69h-174
q-14 0 -24 10t-10 25v176q0 15 10 25t24 10h174q15 0 25 -10t10 -25v-176q0 -15 -10 -25t-25 -10zM223 298q-4 0 -8 -2.5t-6.5 -6.5t-2.5 -9v-176q0 -7 5 -12.5t12 -5.5h174q7 0 12.5 5.5t5.5 12.5v176q0 7 -5.5 12.5t-12.5 5.5h-174zM67 448l-67 -75q0 31 19.5 53t47.5 22z
M0 373l67 75h378q28 0 47.5 -22t19.5 -53v-362q0 -31 -19.5 -53t-47.5 -22h-378q-28 0 -47.5 22t-19.5 53v362zM90 416q-24 0 -41 -19t-17 -46v-318q0 -27 17 -46t41 -19h332q24 0 41 19t17 46v318q0 27 -17 46t-41 19h-332z" />
    <glyph glyph-name="g-vpc" unicode="&#xf14e;" 
d="M443 448q28 0 48 -22t21 -53v-362q0 -31 -20 -53t-47 -22h-378q-27 0 -47 22t-20 52v363q0 31 20 53t47 22h95h185h96zM421 416h-74v-155h-85v-61h157h11h10v-122h40v272q0 28 -17.5 47t-41.5 19zM91 416q-16 0 -30 -8.5t-21.5 -23.5t-7.5 -34v-272h35v122h10h11h157v61
h-83v155h-71zM133 -32h67v110h45v101h-157v-101h45v-110zM309 -32h65v110h45v101h-157v-101h47v-110z" />
    <glyph glyph-name="gentoo" unicode="&#xf14f;" 
d="M185 432q20 3 40.5 -2t34.5 -12t36 -20q71 -42 133 -111q31 -36 39 -54q9 -18 3 -37q-1 -9 -38 -47t-81 -74q-103 -85 -187 -117q-33 -12 -66 -15.5t-57 6.5q-16 10 -22.5 28t-5.5 35q2 8 6 18t13 21.5t16.5 20.5t22 22.5t22.5 20.5t24.5 22t22.5 20q30 27 15 36
q-6 2 -19 8.5t-20.5 10t-19.5 9.5t-20 10.5t-17.5 10t-17 11t-14.5 10.5q-15 14 -10 36q6 25 22.5 47.5t31.5 34.5q27 21 40 29.5t29 13.5t44 8zM265 334q-36 19 -61 8.5t-28 -50.5q-1 -27 34.5 -46.5t54.5 -12.5q23 9 34 20.5t11.5 23t-6 22.5t-17 20t-22.5 15z" />
    <glyph glyph-name="global" unicode="&#xf150;" 
d="M256 -63q-106 0 -180.5 74.5t-74.5 180.5t74.5 180.5t180.5 74.5t180.5 -74.5t74.5 -180.5q0 -69 -34 -128t-93 -93t-128 -34zM256 411q-91 0 -155 -64t-64 -155t64 -155t155 -64v-18v18q91 0 155 64.5t64 155t-64 154.5t-155 64zM256 -63q-8 0 -13 5.5t-5 13.5v472
q0 8 5 13.5t13 5.5t13 -5.5t5 -13.5v-472q0 -8 -5 -13.5t-13 -5.5zM492 174h-472q-8 0 -13.5 5t-5.5 13t5.5 13t13.5 5h472q8 0 13.5 -5t5.5 -13t-5.5 -13t-13.5 -5zM241 -63q-7 0 -12 4q-5 5 -13.5 12.5t-27.5 31.5t-34 51t-26.5 69t-11.5 87t11.5 87t26.5 69t34 51
t27.5 31.5t13.5 12.5q6 4 13.5 3.5t12.5 -6.5t4 -13.5t-7 -12.5q-4 -3 -11 -10t-24 -28t-30 -45t-24 -61.5t-11 -77.5q0 -23 3.5 -45t9 -40t13.5 -35.5t15.5 -30.5t16.5 -25t15.5 -19.5t13.5 -14.5t9.5 -9t3.5 -3q6 -5 7 -12.5t-4 -13.5q-5 -7 -14 -7zM271 -63q-9 0 -14 7
q-5 6 -4 13.5t7 12.5q4 3 11 10t24 28t30.5 45t24 61.5t10.5 77.5t-10.5 77.5t-24 61.5t-30.5 45t-24 28t-11 10q-6 5 -7 12.5t4 13.5t12.5 6.5t13.5 -3.5q5 -5 13.5 -12.5t27.5 -31.5t34 -51t26.5 -69t11.5 -87t-11.5 -87t-26.5 -69t-34 -51t-27.5 -31.5t-13.5 -12.5
q-5 -4 -12 -4zM256 250q-43 0 -79.5 9t-57 20t-36.5 25.5t-20 21t-6 10.5q-4 7 -1.5 14t9.5 10.5t14 1t10 -8.5q2 -4 5.5 -9t17 -16t30.5 -19.5t47.5 -15t67 -6.5t67 6.5t47.5 15t30 20t16.5 16.5t5.5 8q3 6 10.5 8.5t14 -1t9 -10.5t-1.5 -14q-2 -4 -6 -10.5t-20 -21
t-36.5 -25.5t-57 -20t-79.5 -9zM439 21q-11 0 -16 10q-2 4 -5.5 8.5t-16.5 16t-30 20t-47.5 15t-67 6.5t-67.5 -6.5t-48 -15t-30 -20t-16.5 -16.5t-5.5 -8q-3 -7 -10.5 -9t-14 1.5t-9 10.5t1.5 14q2 4 6 10.5t20 21t36.5 25.5t57 20t79.5 9t79.5 -9t57 -20t36.5 -25.5
t20 -21t6 -10.5q4 -7 1.5 -14.5t-9.5 -10.5q-4 -2 -8 -2z" />
    <glyph glyph-name="heat-list" unicode="&#xf151;" 
d="M496 347h-230q-16 0 -16 16t16 16h230q16 0 16 -16t-16 -16zM496 234h-230q-16 0 -16 16t16 16h230q16 0 16 -16t-16 -16zM176 410q13 0 22.5 -9.5t9.5 -22.5v-144q0 -14 -9.5 -23t-22.5 -9h-144q-13 0 -22.5 9t-9.5 23v144q0 13 9.5 22.5t22.5 9.5h144zM176 250v112
q0 16 -16 16h-112q-16 0 -16 -16v-112q0 -16 16 -16h112q16 0 16 16zM496 118h-230q-16 0 -16 16t16 16h230q16 0 16 -16q0 -6 -4.5 -11t-11.5 -5zM496 5h-230q-16 0 -16 16t16 16h230q16 0 16 -16q0 -6 -4.5 -11t-11.5 -5zM176 182q13 0 22.5 -9t9.5 -23v-144
q0 -13 -9.5 -22.5t-22.5 -9.5h-144q-13 0 -22.5 9.5t-9.5 22.5v144q0 14 9.5 23t22.5 9h144zM176 22v112q0 16 -16 16h-112q-16 0 -16 -16v-112q0 -16 16 -16h112q16 0 16 16z" />
    <glyph glyph-name="help" unicode="&#xf152;" 
d="M256 -62q-105 0 -179.5 74.5t-74.5 179.5t74.5 179.5t179.5 74.5t179.5 -74.5t74.5 -179.5t-74.5 -179.5t-179.5 -74.5zM256 409q-90 0 -153.5 -63.5t-63.5 -153.5t63.5 -153.5t153.5 -63.5t153.5 63.5t63.5 153.5t-63.5 153.5t-153.5 63.5zM223 78v30h36v-30h-36z
M259 139h-36v7q0 25 10.5 45t17.5 25t12 8q13 6 24 16.5t11 19.5q0 16 -11 25.5t-31 9.5q-15 0 -24.5 -2t-13 -5.5t-4 -6t-0.5 -6.5h-37q0 57 79 57q35 0 57 -20t22 -52q0 -14 -7.5 -27t-18.5 -22t-18 -13.5t-12 -6.5q-20 -12 -20 -45v-7z" />
    <glyph glyph-name="host-aggregates" unicode="&#xf153;" 
d="M480 416h-448v-160h448v160zM480 448q13 0 22.5 -9.5t9.5 -22.5v-160q0 -13 -9.5 -22.5t-22.5 -9.5h-448q-13 0 -22.5 9.5t-9.5 22.5v160q0 13 9.5 22.5t22.5 9.5h448zM480 128h-448v-160h448v160zM480 160q13 0 22.5 -9.5t9.5 -22.5v-160q0 -14 -9.5 -23t-22.5 -9h-448
q-13 0 -22.5 9t-9.5 23v160q0 13 9.5 22.5t22.5 9.5h448zM62 336v-16h118v16v16h-118v-16zM198 336v-16h118v16v16h-118v-16zM334 336v-16h118v16v16h-118v-16zM62 48v-16h118v16v16h-118v-16zM198 48v-16h118v16v16h-118v-16zM334 48v-16h118v16v16h-118v-16z" />
    <glyph glyph-name="host" unicode="&#xf154;" 
d="M18 12zM16 432zM446 -64h-379q-14 0 -24.5 9.5t-10.5 22.5v128q0 9 5 16q-5 7 -5 16v128q0 9 5 16q-5 7 -5 16v128q0 9 5 16t13 11.5t17 4.5h379q14 0 24 -9.5t10 -22.5v-128q0 -9 -5 -16q5 -7 5 -16v-128q0 -9 -5 -16q5 -7 5 -16v-128q0 -13 -10 -22.5t-24 -9.5z
M446 -32v-16v16v0zM67 96v-128h379v128h-379zM67 128h379v128h-379v-128zM67 288h379v128h-379v-128zM32 256v32h448v-32h-448zM32 96v32h448v-32h-448zM256 336v32h128v-32h-128zM256 176v32h128v-32h-128zM256 16v32h128v-32h-128z" />
    <glyph glyph-name="image" unicode="&#xf155;" 
d="M256 448q106 0 181 -75t75 -181t-75 -181t-181 -75t-181 75t-75 181t75 181t181 75zM402 360q-63 55 -146 55t-146 -55l57 -56q40 32 91 32q50 0 89 -31zM334 114q34 33 34 79q0 47 -32 79t-78 32q-47 0 -80 -34q-33 -33 -33.5 -79.5t31.5 -78.5t78 -32q47 0 80 34z
M33 192q0 -83 55 -146l55 55q-31 39 -30.5 90t31.5 90l-56 57q-55 -63 -55 -146zM110 24q63 -55 146 -55t146 55l-57 56q-40 -32 -91 -32q-50 0 -89 31zM424 46q55 63 55 146t-55 146l-55 -55q31 -39 31 -89.5t-32 -90.5z" />
    <glyph glyph-name="instance-snapshot" unicode="&#xf156;" 
d="M279 9h8h31h8h8h102q8 0 8 -8v-15q0 -8 -8 -8h-173h-12h-12h-164q-8 0 -8 8v16q0 8 8 8h39q8 0 8 -0.5t8 -0.5h94h8h7h12h12h8h8zM314 218q-4 4 1 8l95 92h-80q-6 0 -6 6v17q0 5 6 5h119q6 0 6 -5v-120q0 -6 -6 -6h-17q-5 0 -5 6v74l-93 -90q-4 -4 -8 0zM159 221h-53
l-18 -16q-15 -13 -35 -13h-21v-114h206v114h-29q-22 0 -37 15zM165 253q8 0 13 -6l17 -17q6 -6 14 -6h53q8 0 8 -8v-162q0 -8 -8 -8h-254q-8 0 -8 8v162q0 8 8 8h45q8 0 14 5l21 19q6 5 14 5h63zM511 110l1 -56q0 -6 -6 -6l-205 -1v28l182 1v20v3v10v58v5v203h-455v-126h-29
v149q0 5 6 5h501q5 0 5 -5v-288z" />
    <glyph glyph-name="instance" unicode="&#xf157;" 
d="M120 176h272v-32h-272v32zM478 416q9 0 17 -4.5t12.5 -12t4.5 -16.5v-286q0 -14 -10 -23.5t-24 -9.5h-142v-64h56v-32h-272v32h56v64h-142q-14 0 -24 9.5t-10 23.5v286q0 14 10 23.5t24 9.5h444zM304 0v64h-96v-64h96zM480 97v286q0 2 -2 2h-444q-2 0 -2 -2v-286
q0 -2 2 -2h444q2 0 2 2z" />
    <glyph glyph-name="invoice" unicode="&#xf158;" 
d="M256 -64q-106 0 -181 75t-75 181q0 52 20 99.5t54.5 81.5t82 54.5t99.5 20.5q106 0 181.5 -75t75.5 -181t-75.5 -181t-181.5 -75zM256 416q-93 0 -158.5 -66t-65.5 -158q0 -61 30 -112.5t81.5 -81.5t112.5 -30q93 0 159 65.5t66 158t-66 158.5t-159 66zM243 -6v40
q-30 3 -48.5 12.5t-31.5 31t-16 52.5l40 7q5 -32 16 -47q17 -21 40 -23v125q-24 5 -50 19q-19 11 -29 29.5t-10 41.5q0 42 30 68q20 18 59 22v19h23v-19q34 -3 55 -20q25 -22 31 -59l-41 -6q-4 23 -15 35.5t-30 16.5v-114q30 -7 39 -11q19 -9 30.5 -20.5t18 -27.5t6.5 -34
q0 -41 -26.5 -68.5t-67.5 -29.5v-40h-23zM243 339q-23 -3 -36 -18t-13 -35q0 -21 11 -34.5t38 -21.5v109zM266 67q23 3 38 20t15 42q0 21 -10.5 34.5t-42.5 23.5v-120z" />
    <glyph glyph-name="jpg" unicode="&#xf159;" 
d="M404 448l95 -95h-76q-8 0 -13.5 5.5t-5.5 12.5v77zM496 332h9v-345q0 -21 -15 -36t-36 -15h-267q-21 0 -36 15t-15 36v26h25v-26q0 -10 7.5 -17.5t18.5 -7.5h267q11 0 18.5 7.5t7.5 17.5v320h-65q-16 0 -29.5 8t-21 22t-7.5 29v2v54h-170q-11 0 -18.5 -7.5t-7.5 -17.5
v-154h-25v154q0 21 15 36t36 15h195v-80v-2q0 -13 10 -23t23 -11h81zM384 243q21 0 36 -15t15 -36v-128q0 -21 -15 -36t-36 -15h-333q-21 0 -36 15t-15 36v128q0 21 15 36t36 15h333zM135 115q1 -2 1 -3q0 -18 -11 -32q-11 -12 -28 -12h-3q-8 0 -16 3v23q6 -5 14 -5h1
q18 0 18 27v69h25zM186 110v-41h-26v116h41q43 0 43 -37q0 -17 -14 -28q-13 -11 -30 -11q-1 0 -2 1h-12zM186 166v-37h11q21 0 21 19q0 18 -21 18h-11zM358 77q-18 -10 -39 -10h-2h-4q-23 0 -40 16t-17 40v2.5v2.5q0 25 18 42t43 17h3h2q16 0 31 -5v-24q-15 8 -31 8h-3h-1
q-16 0 -26 -11t-10 -26v-2v-3q0 -14 9 -26q10 -10 24 -10h1h5q6 0 12 2v25h-23v20h48v-58z" />
    <glyph glyph-name="keypair" unicode="&#xf15a;" 
d="M384 369q52 0 86 -20.5t34 -52.5q0 -29 -29 -49t-75 -23v-256h-32v32h-40v32h40v32h-40v32h40v128q-46 3 -75 23t-29 49q0 32 34 52.5t86 20.5zM384 256q42 0 64 12t22 29q0 8 -6 16t-27 15t-53 7q-40 0 -63 -12t-23 -28q0 -12 9.5 -20.5t29.5 -13.5t47 -5zM257 260
q12 -23 30 -30q-8 -2 -20 -2q-42 2 -76 29l-165 -165l-26 25l28 28l-28 28l23 22l27 -28l23 23l-28 28l23 22l27 -28l72 71q-17 21 -23 42q-11 39 12 61q14 14 37 14q43 0 83 -40l5 -5q-15 -14 -22 -29q-3 5 -7 9q-34 33 -56 33q-11 0 -16 -5q-10 -11 0 -38q6 -18 27 -38
q19 -19 50 -27z" />
    <glyph glyph-name="lb" unicode="&#xf15b;" 
d="M192 240v-7q-3 -37 -30.5 -63t-65.5 -26q-40 0 -68 28t-28 68h192zM335 244l-14 8l74 148h-111q-5 -7 -12 -12v-372l160 -32v-32h-352v32l160 32v372q-7 5 -12 12h-111l74 -148l-14 -8l-78 156h-6l-78 -156l-14 8l79 158v22h148q10 16 28 16t28 -16h148v-22l79 -158
l-14 -8l-78 156h-6zM512 240v-7q-1 -18 -9.5 -34.5t-21 -28.5t-29.5 -19t-36 -7q-40 0 -68 28t-28 68h192z" />
    <glyph glyph-name="listener" unicode="&#xf15c;" 
d="M252 -63q-42 0 -67 17.5t-25 45.5v121q0 13 13 16q6 1 14.5 3t30 10.5t38.5 19t30.5 30t13.5 41.5q0 29 -13 41q-8 8 -23 11.5t-27 4t-34 0.5h-11v32h10q27 0 41.5 -0.5t34.5 -6.5t32 -18q22 -22 22 -63q0 -26 -11.5 -48t-27 -36t-36.5 -25t-35.5 -16t-29.5 -9v-108
q0 -8 5.5 -14t12.5 -9t16.5 -5t15 -2.5t10.5 -0.5q37 0 61.5 30t24.5 57q0 20 6.5 39.5t13.5 29.5t20 27q12 16 18 25.5t13 26.5t9 36q7 69 -40 120q-50 56 -139 56q-68 0 -103.5 -30t-35.5 -86q0 -30 18 -47q17 -15 44 -20t46 -4v-31q-4 -1 -9 -1t-19.5 1t-27 4t-28.5 10
t-27 17q-29 27 -29 71q0 70 45 109t126 39q104 0 163 -66q26 -29 39 -67.5t9 -77.5q-2 -23 -10.5 -44.5t-16 -32t-20.5 -27.5q-12 -16 -17.5 -24.5t-10.5 -23t-5 -29.5q0 -41 -34 -80t-84 -39z" />
    <glyph glyph-name="loading" unicode="&#xf15d;" 
d="M238 448l249 -144l-129 -74q-15 -7 -26.5 -4.5t-17.5 9.5l-6 8l105 61l-138 80v-448l-250 144l129 74q33 15 50 -13l-105 -61l139 -80v448z" />
    <glyph glyph-name="log" unicode="&#xf15e;" 
d="M448 -64h-384q-13 0 -22.5 9.5t-9.5 22.5v448q0 13 9.5 22.5t22.5 9.5h384q13 0 22.5 -9.5t9.5 -22.5v-448q0 -13 -9.5 -22.5t-22.5 -9.5zM448 -32zM64 416v-448h384v448h-384zM128 352h32v-32h-32v32zM128 256h32v-32h-32v32zM128 160h32v-32h-32v32zM192 352h192v-32
h-192v32zM192 256h192v-32h-192v32zM192 160h192v-32h-192v32z" />
    <glyph glyph-name="logout" unicode="&#xf15f;" 
d="M59 -62l-58 61v25l58 62l27 -26l-46 -48l46 -49zM238 19v233h36v-233h-36zM512 149h-195v37h158v225h-438v-225h158v-37h-195v299h512v-299zM42 -7v37h232v-37h-232z" />
    <glyph glyph-name="memory" unicode="&#xf160;" 
d="M427 68q0 -4 -2.5 -7t-5.5 -3h-27v26q0 3 -1 6.5t-3.5 5t-5.5 1.5t-5 -1.5t-3.5 -5t-1.5 -6.5v-26h-33v26q0 3 -1.5 6.5t-4 5t-5.5 1.5t-5 -1.5t-3.5 -5t-1.5 -6.5v-26h-33v26q0 5 -3 9t-8 4q-10 0 -10 -13v-26h-33v26q0 3 -1 5.5t-2.5 4t-3 2.5t-3.5 1q-11 0 -11 -13
v-26h-33v26q0 3 -1 5.5t-2 4t-3 2.5t-4 1q-5 0 -8 -4t-3 -9v-26h-33v26q0 5 -3 9t-7 4t-7 -4t-3 -9v-26h-27q-3 0 -5.5 3t-2.5 7v175q0 4 2.5 7t5.5 3h343q3 0 5.5 -3t2.5 -7v-175zM98 433q0 11 2 13t13 2t13 -2t2 -13v-230q0 -11 -2 -13t-13 -2t-13 2t-2 13v230zM165 433
q0 11 2 13t13 2t13 -2t2 -13v-230q0 -11 -2 -13t-13 -2t-13 2t-2 13v230zM233 433q0 11 1.5 13t13 2t13 -2t1.5 -13v-230q0 -11 -1.5 -13t-13 -2t-13 2t-1.5 13v230zM300 433q0 11 1.5 13t13 2t13.5 -2t2 -13v-230q0 -11 -2 -13t-13.5 -2t-13 2t-1.5 13v230zM367 433
q0 11 2 13t13 2t13 -2t2 -13v-230q0 -11 -2 -13t-13 -2t-13 2t-2 13v230zM38 308v18.5t-0.5 13t0.5 7.5t1.5 5t5 2t8 0.5t13 -1t17.5 -0.5h329q8 0 16 0.5t12 0.5h8.5t5.5 -1.5t2.5 -2.5t1 -5t-0.5 -8v-12.5v-16.5v-240v-18.5t0.5 -13t-0.5 -8t-1.5 -5t-5 -1.5t-8 -0.5
t-13 1t-17.5 0.5h-329q-8 0 -17.5 -0.5t-13 -1t-8 0.5t-5 1.5t-1.5 5t-0.5 8t0.5 13v18.5v240zM9 308v-240q0 -48 13.5 -61.5t60.5 -13.5h329q47 0 60.5 13.5t13.5 61.5v240q0 33 -5.5 48t-20.5 21t-48 6h-329q-47 0 -60.5 -13.5t-13.5 -61.5z" />
    <glyph glyph-name="metadata-definition" unicode="&#xf161;" 
d="M257 336q-15 0 -26 11t-11 26.5t10.5 26.5t26 11t26.5 -11t11 -27q0 -15 -10.5 -26t-26.5 -11zM179 178q0 -15 -11 -26t-27 -11t-27 11.5t-11 27t11 26.5t27 11t27 -11t11 -27v-1zM413 276q24 0 41 17t17 40.5t-16.5 40.5t-40.5 17t-40.5 -17t-16.5 -41q0 -23 16.5 -40
t39.5 -17zM313 55q-1 23 -17.5 40t-40.5 17h-1q-24 0 -41 -17t-17 -41q0 -16 8 -29.5t21.5 -21t28.5 -7.5q25 0 42 17t17 41v1zM99 273q24 0 41 17t17 40q0 16 -7.5 29t-21 21t-28.5 8q-24 0 -41 -17t-17 -41q0 -23 16.5 -39.5t40.5 -17.5zM413 431h1q40 0 69 -28.5
t29 -69.5q0 -40 -29 -68.5t-69 -28.5h-1q-17 0 -38 8.5t-33 21.5l-71 -46v-68q34 -6 58 -34.5t24 -63.5q0 -41 -29 -69.5t-69.5 -28.5t-69.5 28.5t-29 69.5q0 35 24 63.5t59 34.5v70l-68 43q-12 -13 -33 -22.5t-39 -9.5h-1q-26 0 -48.5 13t-36 35.5t-13.5 49.5q0 40 29 68.5
t69 28.5h0.5h1.5q40 0 68.5 -28.5t29.5 -68.5q0 -21 -9 -40l67 -43l68 44q-10 19 -10 41q0 41 29 69.5t69 28.5h1zM365 210q11 0 19.5 -5t13.5 -13.5t5 -18.5q0 -16 -11 -26.5t-26.5 -10.5t-26.5 10.5t-11 26.5q0 15 11 26t26 11z" />
    <glyph glyph-name="monitor" unicode="&#xf162;" 
d="M32 208h80v-32h-80v32zM320 208h176v-32h-176v32zM112 176l-24 16l73 128h31zM256 64l-95 256h31l96 -256h-32zM288 64h-32l64 144h32zM480 -16h-448q-13 0 -22.5 10t-9.5 23v350q0 13 9.5 23t22.5 10h448q13 0 22.5 -10t9.5 -23v-350q0 -9 -4.5 -16.5t-11.5 -12
t-16 -4.5zM32 368v-1v-350q0 -1 1 -1h447v1v350q0 1 -1 1h-447z" />
    <glyph glyph-name="more" unicode="&#xf163;" 
d="M256 -64q-106 0 -181 75t-75 181t75 181t181 75t181 -75t75 -181t-75 -181t-181 -75zM256 416q-93 0 -158.5 -65.5t-65.5 -158.5t65.5 -158.5t158.5 -65.5t158.5 65.5t65.5 158.5t-65.5 158.5t-158.5 65.5zM288 192q0 -13 -9.5 -22.5t-22.5 -9.5t-22.5 9.5t-9.5 22.5
t9.5 22.5t22.5 9.5t22.5 -9.5t9.5 -22.5zM160 192q0 -13 -9.5 -22.5t-22.5 -9.5t-22.5 9.5t-9.5 22.5t9.5 22.5t22.5 9.5t22.5 -9.5t9.5 -22.5zM416 192q0 -13 -9.5 -22.5t-22.5 -9.5t-22.5 9.5t-9.5 22.5t9.5 22.5t22.5 9.5t22.5 -9.5t9.5 -22.5z" />
    <glyph glyph-name="mp3" unicode="&#xf164;" 
d="M404 448l95 -95h-76q-8 0 -13.5 5.5t-5.5 12.5v77zM496 332h9v-345q0 -21 -15 -36t-36 -15h-267q-21 0 -36 15t-15 36v26h25v-26q0 -10 7.5 -17.5t18.5 -7.5h267q11 0 18.5 7.5t7.5 17.5v320h-65q-16 0 -29.5 8t-21 22t-7.5 29v2v54h-170q-11 0 -18.5 -7.5t-7.5 -17.5
v-154h-25v154q0 21 15 36t36 15h195v-80v-2q0 -13 10 -23t23 -11h81zM404 448l95 -95h-76q-8 0 -13.5 5.5t-5.5 12.5v77zM496 332h9v-345q0 -21 -15 -36t-36 -15h-267q-21 0 -36 15t-15 36v26h25v-26q0 -10 7.5 -17.5t18.5 -7.5h267q11 0 18.5 7.5t7.5 17.5v320h-65
q-16 0 -29.5 8t-21 22t-7.5 29v2v54h-170q-11 0 -18.5 -7.5t-7.5 -17.5v-154h-25v154q0 21 15 36t36 15h195v-80v-2q0 -13 10 -23t23 -11h81zM384 243q21 0 36 -15t15 -36v-128q0 -21 -15 -36t-36 -15h-333q-21 0 -36 15t-15 36v128q0 21 15 36t36 15h333zM159 69v72v24
q-1 -7 -4 -15l-27 -81h-21l-29 79l-4 16v-29v-66h-23v116h37l26 -70q3 -8 4 -16q2 9 5 16l25 70h35v-116h-24zM235 110v-41h-26v116h41q44 0 44 -37v-1q0 -16 -12 -27q-14 -11 -31 -11q-1 0 -2 1h-14zM235 166v-37h11q22 0 22 19q0 18 -22 18h-11zM310 94q11 -8 26 -8h1h1
q8 0 15 4q5 4 5 12v1q0 8 -7 12q-8 5 -17 5h-2h-10v18h10q23 0 23 16q0 15 -18 15q-13 0 -23 -8v20q13 6 27 6h2h1q14 0 25 -7q11 -8 11 -21v-1v-1q0 -10 -7 -18t-16 -9q11 -1 19 -9q7 -7 7 -18v-1q0 -15 -12 -25q-13 -9 -30 -9h-2.5h-2.5q-14 0 -26 6v20z" />
    <glyph glyph-name="mp4" unicode="&#xf165;" 
d="M404 448l95 -95h-76q-8 0 -13.5 5.5t-5.5 12.5v77zM496 332h9v-345q0 -21 -15 -36t-36 -15h-267q-21 0 -36 15t-15 36v26h25v-26q0 -10 7.5 -17.5t18.5 -7.5h267q11 0 18.5 7.5t7.5 17.5v320h-65q-16 0 -29.5 8t-21 22t-7.5 29v2v54h-170q-11 0 -18.5 -7.5t-7.5 -17.5
v-154h-25v154q0 21 15 36t36 15h195v-80v-2q0 -13 10 -23t23 -11h81zM384 243q21 0 36 -15t15 -36v-128q0 -21 -15 -36t-36 -15h-333q-21 0 -36 15t-15 36v128q0 21 15 36t36 15h333zM156 69v71v25q-1 -7 -3 -15l-29 -81h-20l-27 79q-3 8 -4 16v-29v-66h-23v116h36l25 -70
q3 -8 5 -16q2 9 4 16l26 70h34v-116h-24zM232 110v-41h-25v116h41q43 0 43 -37v-1q0 -16 -13 -27t-30 -11q-1 0 -3 1h-13zM232 166v-37h11q22 0 22 19q0 18 -22 18h-11zM386 94h-15v-25h-22v25h-51v16l49 77h24v-74h15v-19zM349 112v38v11q0 -2 -1 -4t-3 -5l-26 -40h30z" />
    <glyph glyph-name="mvb" unicode="&#xf166;" 
d="M404 448l95 -95h-76q-8 0 -13.5 5.5t-5.5 12.5v77zM496 332h9v-345q0 -21 -15 -36t-36 -15h-267q-21 0 -36 15t-15 36v26h25v-26q0 -10 7.5 -17.5t18.5 -7.5h267q11 0 18.5 7.5t7.5 17.5v320h-65q-16 0 -29.5 8t-21 22t-7.5 29v2v54h-170q-11 0 -18.5 -7.5t-7.5 -17.5
v-154h-25v154q0 21 15 36t36 15h195v-80v-2q0 -13 10 -23t23 -11h81zM384 243q21 0 36 -15t15 -36v-128q0 -21 -15 -36t-36 -15h-333q-21 0 -36 15t-15 36v128q0 21 15 36t36 15h333zM147 69v71v25q-1 -7 -3 -15l-29 -81h-19l-29 79q-3 8 -4 16v-29v-66h-22v116h36l25 -70
q3 -8 5 -16q2 9 4 16l26 70h35v-116h-25zM295 185l-41 -116h-28l-40 116h26l26 -82q1 -5 2 -11q1 6 2 11l26 82h27zM309 69v116h41h3q14 0 26 -7q11 -7 11 -21q0 -9 -6 -16q-7 -7 -16 -10q11 -1 20 -9q7 -8 7 -18v-1v-1q0 -15 -11 -24q-13 -10 -28 -10h-3zM333 166v-28h12h3
q6 0 10 3q5 4 5 10v1q0 14 -19 14h-11zM333 119v-32h14h2q7 0 13 4q5 5 5 12v1q0 7 -5 11q-6 4 -14 4h-1h-14z" />
    <glyph glyph-name="network-qos" unicode="&#xf167;" 
d="M439 -64h-6h6zM439 -64h-6h6zM494 192l-37 -3l-13 188q-1 15 -11.5 24.5t-25.5 9.5h-302q-15 0 -25.5 -9.5t-11.5 -24.5l-26 -365v-3q0 -10 5 -18.5t13.5 -13t18.5 -4.5h103v-37h-103q-31 0 -52.5 21.5t-21.5 51.5q0 3 1 5l26 366q2 29 23 48.5t50 19.5h302q19 0 35.5 -9
t26.5 -24.5t11 -34.5zM457 189l37 3l-14 188q-2 29 -23 48.5t-50 19.5h-302q-29 0 -50 -19.5t-23 -48.5l-26 -366q-1 -2 -1 -5q0 -30 21.5 -51.5t52.5 -21.5h103v37h-103q-16 0 -26.5 10.5t-10.5 25.5v3l26 365q1 10 6 17.5t13 12t18 4.5h302q15 0 25.5 -9.5t11.5 -24.5z
M201 279l28 -26h-35l-15 15q-7 -2 -16 -2q-24 0 -38.5 15t-14.5 38q0 25 15 40.5t40 15.5q24 0 38.5 -15t14.5 -39t-15 -40zM185 294.5q8 9.5 8 25.5t-7.5 25.5t-21.5 9.5t-21.5 -9.5t-7.5 -25t7.5 -25.5t21.5 -10q13 0 21 9.5zM241 334q12 11 32 11q19 0 30 -10.5t11 -28.5
t-11.5 -29t-31.5 -11q-19 0 -30.5 10.5t-11.5 28.5t12 29zM291 306q0 22 -19 22q-9 0 -14 -6t-5 -17q0 -22 19 -22t19 23zM358 284q9 0 14 3t5 8q0 4 -3.5 8t-20.5 10q-26 11 -26 31q0 15 12 23t31 8q14 0 27 -4v-21q-11 7 -26 7q-9 0 -14 -3t-5 -8q0 -4 3.5 -7.5t17.5 -9.5
q17 -7 23 -14.5t6 -17.5q0 -15 -11 -23t-32 -8q-19 0 -31 6v22q13 -10 30 -10zM329 -7v-20h37v20q19 5 34 20l17 -11l19 32l-18 10q3 10 3 20t-3 20l18 10l-19 32l-17 -11q-15 15 -34 20v20h-37v-20q-19 -5 -34 -20l-18 11l-18 -32l18 -10q-3 -10 -3 -20t3 -20l-18 -10
l18 -32l18 11q15 -15 34 -20zM314 192h70q17 -3 17 -19v-14l10 6q15 9 26 -4q8 -15 37 -66q5 -16 -6 -23q-11 -6 -14 -8l14 -8q12 -11 5 -25q-6 -11 -36 -65q-11 -11 -21 -6q-11 7 -15 9v-18q-5 -15 -18 -14h-70q-18 2 -19 14v18l-13 -8q-15 -6 -23 7q-8 14 -35 62
q-7 18 4 26q12 7 14 8l-13 7q-14 11 -5 27t35 62q10 14 23 7q12 -7 13 -8v18q5 15 20 15zM305 64q0 18 12.5 30.5t30 12.5t30 -12.5t12.5 -30.5t-12.5 -30.5t-30 -12.5t-30 12.5t-12.5 30.5z" />
    <glyph glyph-name="network" unicode="&#xf168;" 
d="M232 256l-30 -31l30 -33l-56 -48v32h-96v32h96v32h-96v32h96v32zM432 176h-96v-32h96v-32h-96v-32l-56 48l31 32l-31 32l56 48v-32h96v-32zM478 16h-444q-14 0 -24 9.5t-10 23.5v286q0 14 10 23.5t24 9.5h444q9 0 17 -4.5t12.5 -12t4.5 -16.5v-286q0 -14 -10 -23.5
t-24 -9.5zM34 336q-2 0 -2 -1v-286q0 -1 2 -1h444q2 0 2 1v286q0 1 -2 1h-444z" />
    <glyph glyph-name="notice-management" unicode="&#xf169;" 
d="M273 440q-3 6 -10 7v1h-1h-1v0h-1v0h-1q-6 0 -10 -3l-130 -90h-101q-5 0 -10 -2q0 -1 -1 -1q0 -1 -0.5 -1t-0.5 -1q-6 -5 -6 -13v-258q0 -8 6 -13q0 -1 1 -2h0.5t0.5 -1q5 -2 10 -2h101l130 -90q6 -4 13 -2.5t11 7.5q4 5 3 11v2v441q0 6 -3 10zM134 93q-5 4 -11 3h-88
v224h88q6 -1 11 3l107 74v-378zM374 303q-14 16 -32 27q-12 7 -22 -1q-5 -5 -5.5 -12.5t4.5 -13.5l3 -1l-1 -1q15 -9 27 -21q29 -34 26.5 -78.5t-35.5 -73.5q-7 -7 -17 -13v0l-0.5 -0.5t-1.5 -0.5q-5 -5 -5.5 -12.5t4.5 -12.5q9 -10 21 -4q12 7 23 16q43 40 46.5 99
t-35.5 103zM437 379q-27 30 -63 50q-12 7 -22 -1q-5 -5 -5.5 -12.5t4.5 -13.5q2 -2 5 -4q31 -18 54 -43q58 -65 53 -151.5t-70 -144.5q-21 -18 -47 -31q-3 -2 -4 -3q-6 -5 -6 -12.5t5 -12.5q9 -11 22 -4q30 15 54 36q77 68 82.5 169.5t-62.5 177.5z" />
    <glyph glyph-name="notification" unicode="&#xf16a;" 
d="M480 0h-448q-13 0 -22.5 9t-9.5 22v322q0 9 4.5 16t11.5 11t16 4h448q13 0 22.5 -9t9.5 -22v-322q0 -13 -9.5 -22t-22.5 -9zM480 353l-448 -1v-321l448 1h1zM256 121q-11 0 -20 7l-228 177l20 25l228 -177q2 0 2 1l226 175l20 -25l-226 -176q-10 -7 -22 -7z" />
    <glyph glyph-name="object-storage" unicode="&#xf16b;" 
d="M392 419q-61 29 -161.5 29t-161.5 -29q-69 -33 -69 -80v-297q0 -23 17.5 -43t51.5 -34q61 -29 161.5 -29t161.5 29q32 14 50.5 34.5t18.5 42.5v297q0 47 -69 80zM362 286q-51 -22 -131.5 -22t-132.5 22q-61 18 -61 50q0 28 61 53q52 21 132 21q69 0 132 -21
q62 -25 62 -53q0 -32 -62 -50zM365 195q-64 -22 -135 -22q-66 0 -134 22q-62 25 -62 53v35q9 -5 24 -13t28 -13.5t26 -8.5q61 -15 118.5 -15t117.5 15q14 3 26.5 8.5t28 13.5t24.5 13v-38q0 -25 -62 -50zM365 95q-64 -22 -135 -22q-66 0 -134 22q-62 20 -62 53v47
q54 -30 78 -37q61 -16 118.5 -16t117.5 16q25 7 79 37v-47q0 -33 -62 -53zM230 -26q84 0 135 21q62 25 62 53v47q-53 -29 -81 -37q-61 -16 -118 -16q-59 0 -116 16q-24 7 -78 37v-47q0 -33 62 -53q68 -21 134 -21v0z" />
    <glyph glyph-name="opensuse" unicode="&#xf16c;" 
d="M507 208h2q13 -10 -26 -26q-30 -12 -43 -14q-5 0 -21.5 1.5t-30 2.5t-25.5 -3.5t-14 -16.5q1 -7 0 -9.5t1 -9.5t2.5 -9t4 -9t4 -8.5t4.5 -8t4 -8.5q-4 2 -10.5 5t-11.5 5t-10.5 5t-9.5 7t-11 11.5t-11 12t-11.5 11t-12 9t-13.5 6.5t-15 2.5t-17 -2.5q-9 -2 -16 -9
q-13 -14 -7 -55h-1q-4 2 -32 17q-6 29 -24.5 51.5t-45.5 27.5q-50 9 -71 -33q-13 -25 1 -52q13 -27 42 -30q27 -3 39 13q12 17 3 36q-8 18 -26 20q-14 1 -19 -7q-2 -4 -2 -8q0 -6 3.5 -8.5t6.5 -3.5q3 0 9 2q10 2 13 -8q2 -9 -4 -14q-9 -5 -19 -5q-12 0 -22.5 10t-10.5 27
q-1 21 17 34q26 18 56 -2q18 -12 24.5 -32.5t1.5 -38.5q-8 -24 -27 -36t-46 -10q-45 5 -67 46t-5 84q16 43 48 73.5t71 46t84 20.5t87.5 -0.5t80.5 -18.5v18q35 -4 77 -18q48 -16 56 -74q-23 -20 -47 -18q-29 2 -73 34q13 -33 50 -42.5t66 9.5zM487.5 251.5
q0.5 13.5 -8 23.5t-21 10t-22 -9t-10 -22t8 -23t21.5 -10.5t22 8.5t9.5 22.5z" />
    <glyph glyph-name="overview" unicode="&#xf16d;" 
d="M256 -64q-106 0 -181 75t-75 181t75 181t181 75t181 -75t75 -181t-75 -181t-181 -75zM256 416q-93 0 -158.5 -65.5t-65.5 -158.5t65.5 -158.5t158.5 -65.5t158.5 65.5t65.5 158.5t-65.5 158.5t-158.5 65.5zM283 205q13 17 24 19q18 2 26 0q5 -2 13 -9.5t14 -14.5l6 -7
q7 -2 14 -3t11 -1.5t7.5 -1t4.5 -2t2 -4.5q0 -1 1 -5.5t1 -7t0.5 -8t-0.5 -9.5l-2.5 -10t-5 -11.5t-7.5 -11.5q-17 -21 -43 -46q-7 -7 -14.5 -13.5t-12.5 -10t-9.5 -6t-6.5 -3.5l-2 -1l-50 -24l-14 -7q8 8 14 24q10 24 13.5 40.5t1.5 21.5l-1 5l-52 42l6 29l5 24l24 6z
M78 190q-6 31 8 65t41 62t70.5 44t92.5 11q70 -8 66 -41q-3 -20 -26 -34q-12 -8 -12 -1q1 2 2 5q9 21 3.5 31t-20 12.5t-30.5 0.5t-28 -5l-12 -3q48 -38 40 -43l-58 -13l-25 -26l-28 -11q-9 11 -13 8.5t-4 -11.5l-1 -9q0 1 -0.5 2.5t-2.5 6t-4 7.5t-5 6.5t-6 5t-7.5 0.5
t-8.5 -5q-29 -32 -26.5 -52.5t18.5 -32t22 -6.5l-12 -18q-20 -22 -32 30z" />
    <glyph glyph-name="pdf" unicode="&#xf16e;" 
d="M404 448l95 -95h-76q-8 0 -13.5 5.5t-5.5 12.5v77zM496 332h9v-345q0 -21 -15 -36t-36 -15h-267q-21 0 -36 15t-15 36v26h25v-26q0 -10 7.5 -17.5t18.5 -7.5h267q11 0 18.5 7.5t7.5 17.5v320h-65q-16 0 -29.5 8t-21 22t-7.5 29v2v54h-170q-11 0 -18.5 -7.5t-7.5 -17.5
v-154h-25v154q0 21 15 36t36 15h195v-80v-2q0 -13 10 -23t23 -11h81zM384 243q21 0 36 -15t15 -36v-128q0 -21 -15 -36t-36 -15h-333q-21 0 -36 15t-15 36v128q0 21 15 36t36 15h333zM98 110v-41h-26v116h41q44 0 44 -37v-1q0 -16 -13.5 -27t-30.5 -11q-1 0 -2 1h-13z
M98 166v-37h11q22 0 22 19q0 18 -22 18h-11zM174 69v116h40q62 0 62 -56v-3q0 -24 -17 -40q-18 -17 -42 -17h-3h-40zM200 165v-77h12h2q15 0 26 11q10 11 10 26v2v2q0 15 -10 25q-11 10 -26 10h-2zM362 165h-41v-30h37v-20h-37v-46h-26v116h66z" />
    <glyph glyph-name="performance" unicode="&#xf16f;" 
d="M256 448q106 0 181 -75t75 -181t-75 -181t-181 -75t-181 75t-75 181t75 181t181 75zM256 -30q92 0 157 65t65 157t-65 157t-157 65t-157 -65t-65 -157t65 -157t157 -65zM231 216l0.5 0.5t1.5 0.5l93 91l-38 -127q-8 -23 -32 -23q-14 0 -24 10t-10 24t9 24zM69 208h34v-34
h-34v34zM410 208h34v-34h-34v34zM239 379h34v-34h-34v34zM113 250l-30 16l15 30l31 -15zM158 312l-18 28l28 19l19 -28zM383 280l31 16l15 -30l-30 -16zM354 312l-29 19l19 28l29 -19z" />
    <glyph glyph-name="png" unicode="&#xf170;" 
d="M404 448l95 -95h-76q-8 0 -13.5 5.5t-5.5 12.5v77zM496 332h9v-345q0 -21 -15 -36t-36 -15h-267q-21 0 -36 15t-15 36v26h25v-26q0 -10 7.5 -17.5t18.5 -7.5h267q11 0 18.5 7.5t7.5 17.5v320h-65q-16 0 -29.5 8t-21 22t-7.5 29v2v54h-170q-11 0 -18.5 -7.5t-7.5 -17.5
v-154h-25v154q0 21 15 36t36 15h195v-80v-2q0 -13 10 -23t23 -11h81zM384 243q21 0 36 -15t15 -36v-128q0 -21 -15 -36t-36 -15h-333q-21 0 -36 15t-15 36v128q0 21 15 36t36 15h333zM80 110v-41h-26v116h41q43 0 43 -37v-1q0 -16 -13 -27q-13 -10 -30 -10h-3h-12zM80 166
v-37h10q22 0 22 19q0 18 -21 18h-11zM259 69h-26l-48 75l-6 10v-19v-66h-23v116h26l48 -73l6 -9v8v8v66h24zM380 77q-18 -10 -39 -10h-2h-4q-23 0 -40 16q-16 16 -16 39v3v3q0 25 17 42q19 17 44 17h3h2q16 0 31 -5v-24q-15 8 -32 8h-1h-2q-15 0 -26 -11q-10 -11 -10 -26v-2
v-3q0 -14 9 -26q10 -10 24 -10h2h4q6 0 12 2v25h-23v20h48z" />
    <glyph glyph-name="port" unicode="&#xf171;" 
d="M320 336h96v-96h-32v-96h-96v0l-48 48h-20q-10 -16 -28 -16q-13 0 -22.5 9.5t-9.5 22.5t9.5 22.5t22.5 9.5q18 0 28 -16h39l48 -48h45v64h-32v32h-164q-10 -16 -28 -16q-13 0 -22.5 9.5t-9.5 22.5t9.5 22.5t22.5 9.5q18 0 28 -16h164v32zM489 416q10 0 16.5 -6.5
t6.5 -15.5v-308q0 -4 -2 -8t-5 -7t-7 -5t-9 -2h-9v-96h-224v96h-233q-10 0 -16.5 6.5t-6.5 15.5v308q0 9 6.5 15.5t16.5 6.5h466zM288 0h32v64h-32v-64zM352 0h32v64h-32v-64zM448 0v64h-32v-64h32zM480 96v288h-448v-288h448z" />
    <glyph glyph-name="power-off" unicode="&#xf172;" 
d="M346 432q74 -28 120 -93.5t46 -146.5q0 -106 -75 -181t-181 -75t-181 75t-75 181q0 81 46.5 146.5t119.5 93.5q7 -17 12 -30q-65 -24 -105.5 -81.5t-40.5 -128.5q0 -92 65.5 -158t158.5 -66t158.5 66t65.5 158q0 47 -18.5 89.5t-51.5 73.5t-76 47zM240 448h32v-192h-32
v192z" />
    <glyph glyph-name="power-on" unicode="&#xf173;" 
d="M256 -64q-106 0 -181 75t-75 181t75 181t181 75t181 -75t75 -181t-75 -181t-181 -75zM256 416q-93 0 -158.5 -65.5t-65.5 -158.5t65.5 -158.5t158.5 -65.5t158.5 65.5t65.5 158.5t-65.5 158.5t-158.5 65.5zM192 81v222l192 -111z" />
    <glyph glyph-name="ppt" unicode="&#xf174;" 
d="M404 448l95 -95h-76q-8 0 -13.5 5.5t-5.5 12.5v77zM496 332h9v-345q0 -21 -15 -36t-36 -15h-267q-21 0 -36 15t-15 36v26h25v-26q0 -10 7.5 -17.5t18.5 -7.5h267q11 0 18.5 7.5t7.5 17.5v320h-65q-16 0 -29.5 8t-21 22t-7.5 29v2v54h-170q-11 0 -18.5 -7.5t-7.5 -17.5
v-154h-25v154q0 21 15 36t36 15h195v-80v-2q0 -13 10 -23t23 -11h81zM384 243q21 0 36 -15t15 -36v-128q0 -21 -15 -36t-36 -15h-333q-21 0 -36 15t-15 36v128q0 21 15 36t36 15h333zM102 110v-41h-25v116h39q44 0 44 -37v-1q0 -16 -13 -27t-30 -11q-2 0 -3 1h-12zM102 166
v-37h11q22 0 22 19q0 18 -23 18h-10zM202 110v-41h-25v116h41q43 0 43 -37v-1q0 -16 -13 -27t-30 -11q-2 0 -3 1h-13zM202 166v-37h11q22 0 22 19q0 18 -22 18h-11zM358 165h-32v-96h-26v96h-33v20h91v-20z" />
    <glyph glyph-name="pptx" unicode="&#xf175;" 
d="M404 448l95 -95h-76q-8 0 -13.5 5.5t-5.5 12.5v77zM496 332h9v-345q0 -21 -15 -36t-36 -15h-267q-21 0 -36 15t-15 36v26h25v-26q0 -10 7.5 -17.5t18.5 -7.5h267q11 0 18.5 7.5t7.5 17.5v320h-65q-16 0 -29.5 8t-21 22t-7.5 29v2v54h-170q-11 0 -18.5 -7.5t-7.5 -17.5
v-154h-25v154q0 21 15 36t36 15h195v-80v-2q0 -13 10 -23t23 -11h81zM384 243q21 0 36 -15t15 -36v-128q0 -21 -15 -36t-36 -15h-333q-21 0 -36 15t-15 36v128q0 21 15 36t36 15h333zM86 114v-32h-19v90h31q33 0 33 -28v-1q0 -13 -10 -21t-23 -8h-2h-10zM86 157v-29h8
q17 0 17 15q0 14 -16 14h-9zM164 114v-32h-19v90h31q33 0 33 -28v-1q0 -13 -10 -21t-23 -8h-3h-9zM164 157v-29h8q17 0 17 15q0 14 -17 14h-8zM284 156h-25v-74h-19v74h-26v16h70v-16zM368 82h-22l-17 30q-1 3 -1 6l-2 -6l-16 -30h-23l28 45l-25 45h23l13 -27q2 -4 3 -8
q1 4 3 8l15 27h21l-26 -45z" />
    <glyph glyph-name="project" unicode="&#xf176;" 
d="M404 -1h-351q-14 0 -21 10t-3 22l73 235q3 9 12 15.5t20 6.5h350q16 0 24 -11q6 -10 2 -21l-72 -228q-9 -29 -34 -29zM62 31h342q2 2 3 7l69 218h-342zM402 -1h-345q-12 0 -21 8.5t-10 20.5l-25 291q0 7 3 13t9 10t14 4h20q39 -1 85 -1l4 39h170l3 -34h47q49 -1 61 -1
q8 0 14.5 -3.5t10.5 -8.5t5 -11v-2l2 -41l-32 -2l-2 36q-7 0 -59 1h-51q-15 0 -22 8q-5 6 -5 13l-1 13h-112l-2 -15q0 -9 -6 -16q-7 -8 -18 -8q-55 0 -92 1h-14l2 -26l23 -257h344v-32z" />
    <glyph glyph-name="property" unicode="&#xf177;" 
d="M256 -64q-106 0 -181 75t-75 181t75 181t181 75t181 -75t75 -181t-75 -181t-181 -75zM256 416q-93 0 -158.5 -65.5t-65.5 -158.5t65.5 -158.5t158.5 -65.5t158.5 65.5t65.5 158.5t-65.5 158.5t-158.5 65.5zM224 224h64v-192h-64v192zM224 352h64v-68h-64v68z" />
    <glyph glyph-name="question" unicode="&#xf178;" 
d="M256 448q106 0 181 -75t75 -181t-75 -181t-181 -75t-181 75t-75 181t75 181t181 75zM274 59v39h-38v-39h38zM335 231q8 15 8 33q0 31 -24 53t-64 22q-38 0 -61 -20.5t-28 -58.5l35 -5q4 29 18.5 42.5t36.5 13.5t37.5 -15t15.5 -34q0 -11 -5.5 -20t-22.5 -25
q-18 -15 -25 -24q-9 -11 -13 -22q-5 -14 -5 -34v-10h32q1 20 3 29t7.5 16t21.5 22q25 22 33 37z" />
    <glyph glyph-name="quota-approval" unicode="&#xf179;" 
d="M116 71l90 90l23 -22l-90 -91zM388 48l-91 91l23 22l90 -90zM245 222v128h32v-128h-32zM256 -63q-96 0 -164.5 68.5t-68.5 164.5q0 63 31 117t85 85t117 31q96 0 164.5 -68.5t68.5 -164.5q0 -63 -31 -117t-85 -85t-117 -31zM256 374q-55 0 -102 -27.5t-74.5 -74.5
t-27.5 -102q0 -84 60 -144t144 -60t144 60t60 144q0 55 -27.5 102t-74.5 74.5t-102 27.5zM348 38q0 -33 23.5 -56.5t56.5 -23.5t56.5 23.5t23.5 56.5t-23.5 56.5t-56.5 23.5t-56.5 -23.5t-23.5 -56.5zM428 86q20 0 34 -14t14 -34t-14 -34t-34 -14t-34 14t-14 34t14 34t34 14
zM428 118q-33 0 -56.5 -23.5t-23.5 -56.5t23.5 -56.5t56.5 -23.5t56.5 23.5t23.5 56.5t-23.5 56.5t-56.5 23.5zM4 37q0 -33 23.5 -56.5t56.5 -23.5t56.5 23.5t23.5 56.5t-23.5 56.5t-56.5 23.5t-56.5 -23.5t-23.5 -56.5zM84 85q20 0 34 -14t14 -34t-14 -34t-34 -14t-34 14
t-14 34t14 34t34 14zM84 117q-33 0 -56.5 -23.5t-23.5 -56.5t23.5 -56.5t56.5 -23.5t56.5 23.5t23.5 56.5t-23.5 56.5t-56.5 23.5zM20 36.5q0 -26.5 18.5 -45t45 -18.5t45.5 18.5t19 45t-19 45.5t-45.5 19t-45 -19t-18.5 -45.5zM84 69q-13 0 -22.5 -9.5t-9.5 -22.5
t9.5 -22.5t22.5 -9.5t22.5 9.5t9.5 22.5t-9.5 22.5t-22.5 9.5zM84 101q26 0 45 -19t19 -45.5t-19 -45t-45.5 -18.5t-45 18.5t-18.5 45.5q0 17 8.5 32t23 23.5t32.5 8.5zM212 448q-33 -24 -33 -65q0 -33 23.5 -56.5t56.5 -23.5t56.5 23.5t23.5 56.5q0 41 -33 65h-94zM259 431
q-10 0 -18.5 -3.5t-15 -10t-10.5 -15.5t-4 -19q0 -20 14 -34t34 -14t34 14t14 34t-14 34t-34 14zM306 448q33 -24 33 -65q0 -33 -23.5 -56.5t-56.5 -23.5t-56.5 23.5t-23.5 56.5q0 41 33 65h94zM364 38.5q0 -26.5 19 -45t45.5 -18.5t45 18.5t18.5 45t-18.5 45.5t-45 19
t-45.5 -19t-19 -45.5zM428 71q-13 0 -22.5 -9.5t-9.5 -23t9.5 -22.5t22.5 -9t22.5 9t9.5 22.5t-9.5 23t-22.5 9.5zM428.5 103q26.5 0 45 -19t18.5 -45.5t-18.5 -45t-45 -18.5t-45.5 18.5t-19 45t19 45.5t45.5 19zM195 383.5q0 -26.5 19 -45.5t45.5 -19t45 19t18.5 45.5
t-18.5 45t-45 18.5t-45.5 -18.5t-19 -45zM259 415q-13 0 -22.5 -9t-9.5 -22.5t9.5 -23t22.5 -9.5t22.5 9.5t9.5 23t-9.5 22.5t-22.5 9zM259.5 447q26.5 0 45 -18.5t18.5 -45t-18.5 -45.5t-45 -19t-45.5 19t-19 45.5t19 45t45.5 18.5zM178 171q0 -33 24 -57t58 -24
q16 0 31.5 6.5t26 17t17 26t6.5 31.5q0 34 -23.5 58t-57.5 24q-22 0 -41 -11t-30 -30t-11 -41zM260 221q-21 0 -35.5 -14.5t-14.5 -35t14.5 -35t35 -14.5t35 14.5t14.5 34.5q0 14 -6.5 25t-18 18t-24.5 7zM260 253q34 0 57.5 -24t23.5 -57.5t-23.5 -57.5t-57.5 -24t-58 24
t-24 57.5t24 57.5t58 24zM252 145v0l-26 25l5 6l21 -21l36 35l5 -5zM288 190l-36 -35l-21 21l-5 -6l26 -25v0l41 40zM288 196l3 -3l5 -5l3 -3l-3 -3l-41 -40h-1l-2 -3l-3 3l-26 26l-3 2l3 3l5 5l3 3l3 -3l18 -17l33 32z" />
    <glyph glyph-name="rar" unicode="&#xf17a;" 
d="M404 448l95 -95h-76q-8 0 -13.5 5.5t-5.5 12.5v77zM496 332h9v-345q0 -21 -15 -36t-36 -15h-267q-21 0 -36 15t-15 36v26h25v-26q0 -10 7.5 -17.5t18.5 -7.5h267q11 0 18.5 7.5t7.5 17.5v320h-65q-16 0 -29.5 8t-21 22t-7.5 29v2v54h-170q-11 0 -18.5 -7.5t-7.5 -17.5
v-154h-25v154q0 21 15 36t36 15h195v-80v-2q0 -13 10 -23t23 -11h81zM384 243q21 0 36 -15t15 -36v-128q0 -21 -15 -36t-36 -15h-333q-21 0 -36 15t-15 36v128q0 21 15 36t36 15h333zM154 69h-28l-18 30q-4 7 -10 12q-3 3 -7 3h-8v-45h-25v116h41q42 0 42 -31v-1
q0 -11 -7 -20q-8 -9 -20 -11q12 -6 18 -18zM83 166v-33h12h1q8 0 13 5t5 13q0 15 -18 15h-13zM266 69h-27l-8 26h-43l-9 -26h-25l42 116h29zM225 115l-13 40q-2 6 -2 11v0l-2 -10l-14 -41h31zM377 69h-29l-18 30q-3 7 -9 12q-3 3 -8 3h-6v-45h-25v116h40q42 0 42 -31v-1
q0 -11 -7 -20q-8 -9 -19 -11q11 -6 18 -18zM307 166v-33h12h1q8 0 13 5t5 12v1q0 15 -18 15h-13z" />
    <glyph glyph-name="red-hat" unicode="&#xf17b;" 
d="M336 78q-3 -5 -7 -8q-11 -8 -23 0q-8 4 -14 4q-3 -1 -5 0.5t-2 4t1 4.5q1 4 7 5.5t14 -2.5q13 -8 18 -4q4 3 8 8h1h1q4 -4 1 -12zM477 68q-30 0 -52 -9q-2 -1 -2 -4v-1q1 -4 -2 -7.5t-12 -5.5t-16.5 -7.5t-15 -14l-7.5 -8.5q-13 -9 -28 -8q17 22 19 27q4 6 10 13t8 11
q11 16 13 22q1 5 1.5 13.5t1 9.5t4 11.5t3.5 15.5q-1 2 -4.5 0.5t-11 -4t-11.5 -2.5t-12.5 2.5t-12.5 2.5t-12 -3t-12 -3q-2 1 -7.5 3.5t-10.5 2.5q-4 0 -22 -3.5t-34 -2.5q-17 0 -33.5 14.5t-23.5 25.5q-6 9 -15 1q-4 -3 -8 -2t-6 4q-14 25 -28 29q-15 4 -23.5 -4.5
t-6.5 -20.5q0 -6 2.5 -10t6.5 -8t5 -6q7 -12 14 -15q8 -4 6 -10q-2 -5 -11 -5q-10 -1 -18 4q-7 5 -12 14q-7 11 -22 11q-6 0 -11 -2q-22 -12 -48 -12h-20q29 -84 103.5 -137.5t168.5 -53.5q74 0 137.5 34.5t102.5 93.5q-18 4 -35 4v0zM294 427h-1v1q11 5 27 7h9h1.5h0.5
q9 0 16.5 -2t11.5 -5.5t4 -7.5q0 -6 -9.5 -10t-23.5 -4q-8 0 -16 2q-1 1 -1 2t1 1q19 4 19 10q-2 9 -33 6h-6zM260 375q-33 -2 -42 -12q-3 -2 -6 -2t-5.5 2.5t-4.5 5t-3 4.5l-1 2q-6 1 -10 8t-1 13q3 7 8.5 7t6.5 -3q8 -10 18 -9q3 0 14 1t19 1q22 0 23 -10q1 -2 0 -3.5
t-5 -2.5t-11 -2zM441 306q-6 -20 -24 -29q-2 -1 -3 0t0 3q7 10 10 17q5 12 -1 34q-6 18 -14 38.5t-17.5 37.5t-17.5 25q-25 24 -69 13q-1 0 -6.5 -1.5t-10 -2.5t-11.5 -2t-15.5 -0.5t-18.5 2.5q-60 13 -71 -28l-11 -47q-3 -5 -1 -12t7.5 -14t26 -15t52.5 -14q19 -4 30 -9
t13 -8t3 -9q5 -18 15 -25q8 -5 -4 -7q-1 0 -3 -1q-14 -1 -55 11t-69 27q-40 23 -26 51q-37 4 -62 -3t-30 -24q-9 -28 53 -69t147 -66q88 -27 165.5 -9.5t87.5 69.5q5 24 -14 41.5t-56 25.5v0z" />
    <glyph glyph-name="redhat" unicode="&#xf17c;" 
d="M320 78q-3 -5 -7 -8q-10 -8 -22 0q-7 4 -13 4q-6 -1 -7 5q0 2 1 4q2 4 7 5.5t13 -2.5q13 -8 18 -4q4 3 7 8h1h1q4 -5 1 -12zM455 68q-29 0 -50 -9q-3 -1 -3 -4q0 -1 1 -2q1 -3 -2 -6.5t-12 -5.5q-8 -2 -15 -7.5t-14 -14t-8 -8.5q-12 -9 -27 -8q17 22 19 27q3 6 9 13t8 11
q10 16 12 22q1 5 1.5 13.5t1.5 9.5q0 2 2 7.5t3.5 10.5t1.5 9q0 1 -17 -5q-6 -1 -9 -1q-4 0 -12 2.5t-11 2.5q-5 0 -12 -3.5t-12 -2.5q-1 0 -6.5 2.5t-10.5 3.5q-4 0 -20.5 -3.5t-32.5 -2.5q-12 0 -25 9.5t-19.5 17t-9.5 13.5q-6 9 -14 1q-4 -3 -8 -2t-6 4q-13 25 -27 29
q-7 2 -13 0t-9.5 -6t-5 -9t-1.5 -10q1 -6 3.5 -10.5t6 -8t4.5 -5.5q7 -12 13 -15q8 -4 6 -10q-2 -5 -10 -5q-10 -1 -17 4q-7 4 -12 14q-7 11 -20 11q-6 0 -11 -3q-21 -11 -46 -11h-19q28 -84 99 -137.5t160 -53.5q70 0 130.5 34.5t98.5 93.5q-17 4 -33 4v0zM278 426
q-1 0 -1 1t1 1q10 5 26 7h9h1q13 0 22.5 -4.5t9 -11t-9.5 -10.5t-23 -4q-8 1 -15 3q-1 0 -1 1t1 1q19 4 18 11q-2 9 -32 6q-3 0 -6 -1zM245 374q-31 -3 -41 -12q-4 -4 -8.5 -1.5t-7.5 7.5l-3 5q-5 1 -9 8t-1 14t8 7t6 -3q8 -10 18 -9q3 0 13.5 1t17.5 1q22 0 23 -10
q1 -3 -2.5 -5t-13.5 -3zM421 303q-6 -21 -24 -30q-2 -1 -2.5 0.5t0.5 2.5q6 11 9 18q5 12 -1 35q-8 29 -22 60t-25 43q-24 24 -67 13q-2 0 -5.5 -1.5t-7 -2.5t-9 -1.5t-10.5 -1t-12.5 0t-15.5 2.5q-58 13 -69 -28l-11 -48q-3 -5 -0.5 -12.5t8 -15t25 -15.5t50.5 -14
q19 -3 29.5 -8.5t12 -8.5t3.5 -9q4 -19 14 -26q8 -5 -4 -7q-1 0 -2 -1q-14 -1 -54 11.5t-67 27.5q-38 24 -25 52q-36 4 -60 -3.5t-29 -23.5q-8 -29 51.5 -71t141.5 -67q86 -28 161 -10t85 71q4 24 -14.5 42t-53.5 26v0z" />
    <glyph glyph-name="redirect-policy" unicode="&#xf17d;" 
d="M358 286h154v-34h-154v34zM478 282h34v-153h-34v153zM180 263l172 -160l-23 -25l-173 160zM477 275l24 -25l-158 -158l-24 25zM172 270l24 -25l-171 -167l-23 25z" />
    <glyph glyph-name="refresh" unicode="&#xf17e;" 
d="M196 401q-45 -13 -80.5 -43t-55.5 -73.5t-20 -91.5q0 -50 21 -93.5t58 -74.5l71 71v-160h-160l66 67q-41 35 -64.5 84.5t-23.5 105.5q0 84 50 150t128 89zM415 383q42 -35 65.5 -84.5t23.5 -105.5q0 -86 -51.5 -152.5t-131.5 -88.5l-8 31q69 19 114 77t45 133
q0 33 -10 64t-27.5 57t-42.5 46l-72 -72v160h160z" />
    <glyph glyph-name="region" unicode="&#xf17f;" 
d="M316 57q44 -7 72 -22t28 -37q0 -29 -48 -45.5t-112 -16.5t-112 16.5t-48 45.5q0 26 38 42t94 20l-91 183q-19 32 -19 68q0 57 40.5 97t97.5 40t97.5 -40t40.5 -97q0 -36 -19 -68l-119 -240l-17 35q-53 -2 -87 -14.5t-34 -25.5q0 -8 16.5 -17t49 -16t72.5 -7t72.5 7t49 16
t16.5 17q0 11 -24.5 22t-63.5 16zM198 328q0 -24 17 -40.5t41 -16.5t41 16.5t17 40.5t-17 41t-41 17t-41 -17t-17 -41z" />
    <glyph glyph-name="registration-approval" unicode="&#xf180;" 
d="M121 316q0 -56 39 -95t94.5 -39t95 39t39.5 95t-39.5 95t-95 39t-94.5 -39t-39 -95zM255 418q42 0 72 -30t30 -72t-30 -72t-72 -30q-28 0 -51.5 13.5t-37 37t-13.5 51.5q0 42 30 72t72 30zM254.5 450q-55.5 0 -94.5 -39t-39 -95t39 -95t94.5 -39t95 39t39.5 95t-39.5 95
t-95 39zM157 343q0 -45 31.5 -76t76 -31t75.5 31t31 75.5t-31 76t-76 31.5q-29 0 -53.5 -14.5t-39 -39t-14.5 -53.5zM264 418q-31 0 -53 -22t-22 -53t22 -53t53 -22t53 22t22 53t-22 53t-53 22zM264.5 450q44.5 0 75.5 -31.5t31 -76t-31 -75.5t-75.5 -31t-76 31t-31.5 75.5
t31.5 76t76 31.5zM256 -62h-3h-35h-160q-20 0 -34.5 11t-14.5 27v198q0 16 14.5 27.5t34.5 11.5h292v-32h-292q-5 0 -9 -1.5t-6 -3t-2 -2.5v-198q0 -1 2 -2.5t6 -2.5t9 -1h198v-32zM300 145.5q0 -42.5 30 -72.5t72.5 -30t72.5 30t30 72.5t-30 72.5t-72.5 30t-72.5 -30
t-30 -72.5zM402 216q29 0 50 -20.5t21 -50t-21 -50t-50 -20.5t-49.5 20.5t-20.5 50t20.5 50t49.5 20.5zM402 248q-28 0 -51.5 -14t-37 -37.5t-13.5 -51.5q0 -42 30 -72t72.5 -30t72.5 30t30 72q0 21 -8.5 40t-22 33t-32.5 22t-40 8zM321 145.5q0 -33.5 23.5 -57.5t57.5 -24
t58 24t24 57.5t-24 57.5t-58 24t-57.5 -24t-23.5 -57.5zM402.5 195q-20.5 0 -35 -14.5t-14.5 -35t14.5 -35t35 -14.5t35 14.5t14.5 35t-14.5 35t-35 14.5zM402 227q34 0 58 -24t24 -57.5t-24 -57.5t-58 -24t-57.5 24t-23.5 57.5t23.5 57.5t57.5 24zM394 119v0l-26 26l5 5
l21 -21l37 36l5 -6zM431 165l-37 -36l-21 21l-5 -5l26 -26v0l42 40zM431 170l2 -3l6 -5l3 -3l-3 -2l-42 -41h-1l-2 -3l-3 3l-26 26l-3 3l3 3l5 5l3 2l3 -2l18 -18l34 32zM415 -64q-10 32 -37 52t-61 20t-61 -20t-36 -52h195zM254 -64q43 40 26 29t-26 -29zM317 -24
q55 -22 38 -11t-38 11zM220 -64q6 21 20 37t34.5 25.5t43 9.5t42.5 -9.5t34.5 -25.5t20.5 -37h-195z" />
    <glyph glyph-name="remove" unicode="&#xf181;" 
d="M256 -64q-106 0 -181 75t-75 181t75 181t181 75t181 -75t75 -181t-75 -181t-181 -75zM256 416q-93 0 -158.5 -65.5t-65.5 -158.5t65.5 -158.5t158.5 -65.5t158.5 65.5t65.5 158.5t-65.5 158.5t-158.5 65.5zM128 208h256v-32h-256v32z" />
    <glyph glyph-name="resource-pool" unicode="&#xf182;" 
d="M255.5 281q-102.5 0 -179 21.5t-76.5 61.5t76.5 61.5t179 21.5t179 -21.5t76.5 -61.5t-76.5 -61.5t-179 -21.5zM255.5 413q-67.5 0 -121 -9.5t-77 -20.5t-23.5 -19t23.5 -19t77 -20.5t121 -9.5t121 9.5t77 20.5t23.5 19t-23.5 19t-77 20.5t-121 9.5zM256 -62
q-102 0 -179 21.5t-77 61.5h35q0 -8 23.5 -19t77 -20.5t120.5 -9.5q42 0 79 4t62.5 9.5t44 12t27 13t8.5 10.5h35q0 -40 -77 -61.5t-179 -21.5zM478 363h34v-342h-34v342zM0 363h34v-342h-34v342zM216 27l-121 121l24 24l97 -97l177 176l24 -24l-177 -176z" />
    <glyph glyph-name="restart" unicode="&#xf183;" 
d="M284.5 420q94.5 0 161 -67t66.5 -161t-66.5 -161t-161.5 -67q-48 0 -92.5 20t-76.5 56l21 19q60 -66 148 -66q83 0 141.5 58.5t58.5 140.5t-58.5 140.5t-141.5 58.5q-54 0 -99.5 -26.5t-72.5 -72.5t-27 -100h60l-70 -70l-78 70h60q0 94 66.5 161t161 67z" />
    <glyph glyph-name="rmvb" unicode="&#xf184;" 
d="M404 448l95 -95h-76q-8 0 -13.5 5.5t-5.5 12.5v77zM496 332h9v-345q0 -21 -15 -36t-36 -15h-267q-21 0 -36 15t-15 36v26h25v-26q0 -10 7.5 -17.5t18.5 -7.5h267q11 0 18.5 7.5t7.5 17.5v320h-65q-16 0 -29.5 8t-21 22t-7.5 29v2v54h-170q-11 0 -18.5 -7.5t-7.5 -17.5
v-154h-25v154q0 21 15 36t36 15h195v-80v-2q0 -13 10 -23t23 -11h81zM404 448l95 -95h-76q-8 0 -13.5 5.5t-5.5 12.5v77zM496 332h9v-345q0 -21 -15 -36t-36 -15h-267q-21 0 -36 15t-15 36v26h25v-26q0 -10 7.5 -17.5t18.5 -7.5h267q11 0 18.5 7.5t7.5 17.5v320h-65
q-16 0 -29.5 8t-21 22t-7.5 29v2v54h-170q-11 0 -18.5 -7.5t-7.5 -17.5v-154h-25v154q0 21 15 36t36 15h195v-80v-2q0 -13 10 -23t23 -11h81zM384 243q21 0 36 -15t15 -36v-128q0 -21 -15 -36t-36 -15h-333q-21 0 -36 15t-15 36v128q0 21 15 36t36 15h333zM114 82h-22
l-14 24q-3 5 -7 9q-2 2 -6 2h-6v-35h-19v90h32q32 0 32 -26q0 -9 -6 -15q-6 -7 -14 -9q9 -5 13 -14zM59 157v-25h10q6 0 11 4q4 4 4 9v1q0 12 -15 12zM205 82v55v19q0 -2 -3 -12l-23 -62h-14l-22 62q-2 6 -3 12v-23v-51h-17v90h28l19 -54q2 -7 3 -13q0 2 4 13l19 54h28v-90
h-19zM318 172l-31 -90h-22l-30 90h21l19 -63q2 -5 2 -9q0 5 2 9l19 63h20zM329 82v90h32h2q12 0 21 -6q8 -5 8 -14v-1q0 -7 -5 -12.5t-12 -7.5q8 -1 15 -7q6 -6 6 -14v-1q0 -11 -9 -19q-10 -7 -22 -7h-2zM348 158v-22h10h1q6 0 10 3q3 3 3 8q0 11 -14 11h-10zM348 121v-25
h10h2q5 0 10 3q4 3 4 9v1q0 5 -4 8q-5 3 -10 3h-2z" />
    <glyph glyph-name="role" unicode="&#xf185;" 
d="M259 193q49 -27 84.5 -90t35.5 -166h-32q0 55 -12.5 99.5t-30 69.5t-38 42t-35 23t-23.5 6q-7 -1 -14 -1q-10 0 -21 2v-1q-8 0 -22.5 -6t-35.5 -23t-38.5 -42t-30 -69.5t-12.5 -99.5h-32q0 105 37 168.5t87 89.5q-31 18 -49.5 49t-18.5 68q0 56 40 96t96 40t96 -40
t40 -96q0 -38 -19.5 -70t-51.5 -49zM90 312q0 -21 8.5 -40.5t22.5 -33t33 -22t40 -8.5q43 0 73.5 30.5t30.5 73.5t-30.5 73.5t-73.5 30.5t-73.5 -30.5t-30.5 -73.5zM352 383h160v-32h-160v32zM352 287h160v-32h-160v32zM352 192h160v-32h-160v32z" />
    <glyph glyph-name="router" unicode="&#xf186;" 
d="M256 -64q-106 0 -181 75t-75 181t75 181t181 75t181 -75t75 -181t-75 -181t-181 -75zM256 416q-93 0 -158.5 -65.5t-65.5 -158.5q0 -61 30 -112.5t81.5 -81.5t112.5 -30q93 0 158.5 65.5t65.5 158.5t-65.5 158.5t-158.5 65.5zM224 135v-39l-20 20l-51 -52l-25 25l51 52
l-19 19h64v-25v0zM384 295l-51 -52l19 -19h-64v64l19 -19l52 51zM224 247l-23 -23l-52 53l-21 -21v64h64l-21 -21zM365 109l19 19v-64h-64l19 19l-51 52l25 25z" />
    <glyph glyph-name="search" unicode="&#xf187;" 
d="M480 -10l-22 -22l-145 145q-48 -40 -110 -40q-70 0 -120.5 50.5t-50.5 121t50.5 121t121 50.5t121 -50.5t50.5 -121.5q0 -61 -40 -109zM203 104q58 0 99.5 41.5t41.5 99.5t-41.5 99t-99.5 41t-99 -41t-41 -99.5t41 -99.5t99 -41z" />
    <glyph glyph-name="security-group" unicode="&#xf188;" 
d="M288 129q0 -15 -14 -24v-40q0 -7 -5 -12t-13 -5q-4 0 -8.5 2.5t-7 6t-2.5 8.5v39q-14 9 -14 25q0 13 9.5 22t22.5 9q7 0 12.5 -2.5t10 -6.5t7 -10t2.5 -12zM457 256q9 0 16 -7t7 -16v-274q0 -9 -7 -16t-16 -7h-402q-9 0 -16 7t-7 16v274q0 9 7 16t16 7h73v39
q0 47 34.5 84t92.5 37t93.5 -37t35.5 -84v-39h73zM160 295v-39h192v39q0 35 -26.5 62t-69.5 27q-44 0 -70 -27t-26 -62zM447 -31v254h-382v-254h382z" />
    <glyph glyph-name="security-log" unicode="&#xf189;" 
d="M37 411h335l103 -89v-349h-438v438zM18 448q-7 0 -12.5 -5.5t-5.5 -12.5v-476q0 -7 5.5 -12.5t12.5 -5.5h476q7 0 12.5 5.5t5.5 12.5v385l-126 109h-368zM37 -27v438h312v-69q0 -16 12 -28t28 -12h86v-329h-438zM18 448q-7 0 -12.5 -5.5t-5.5 -12.5v-476q0 -7 5.5 -12.5
t12.5 -5.5h476q7 0 12.5 5.5t5.5 12.5v385h-123q-3 0 -3 3v106h-368zM329 258v-22q0 -6 1 -6.5t6 -0.5h59q5 0 6 0.5t1 6.5v22q0 5 -1 6t-6 1h-59q-5 0 -6 -1t-1 -6zM293 148v-22q0 -5 0.5 -6t6.5 -1h95q5 0 6 1t1 6v22q0 6 -1 6.5t-6 0.5h-95q-6 0 -6.5 -0.5t-0.5 -6.5z
M110 38v-22q0 -5 1 -6t6 -1h278q5 0 6 1t1 6v22q0 6 -1 7t-6 1h-278q-5 0 -6 -1t-1 -7zM112 306l33 32h80l31 -32q-8 -51 -19 -101q-2 -11 -25 -25q-9 -6 -21 -11q-2 -1 -4 -1q-3 0 -5 1q-12 5 -23 10q-23 13 -27 27q-12 47 -20 100zM240 375h-110l-57 -56l1 -9
q9 -61 23 -113q8 -30 45 -50q20 -11 41 -16l5 -2l6 2q5 2 12 5q13 6 25 13q37 22 42 49q12 55 20 111l2 9z" />
    <glyph glyph-name="select-down" unicode="&#xf18a;" 
d="M256 64l-256 256h512z" />
    <glyph glyph-name="setting" unicode="&#xf18b;" 
d="M321 -67h-130v75l-23 8l-52 -52l-88 88l51 52l-7 23h-75v130h75l7 23l-51 52l88 88l52 -52l23 8v75h130v-75l23 -7l52 51l88 -88l-52 -52l8 -23h75v-130h-75l-8 -23l52 -52l-88 -88l-52 52l-23 -8v-75zM228 -31h56v65l70 23l42 -41l36 36l-41 42l23 70h65v56h-65l-23 70
l41 42l-36 36l-42 -41l-70 23v65h-56v-65l-70 -23l-42 41l-36 -36l41 -42l-23 -70h-65v-56h65l23 -70l-41 -42l36 -36l42 41l70 -23v-65zM256 127q-27 0 -46 19t-19 46t19 46t46 19t46 -19t19 -46t-19 -46t-46 -19zM256 220q-12 0 -20 -8t-8 -20t8 -20t20 -8t20 8t8 20
t-8 20t-20 8z" />
    <glyph glyph-name="sles" unicode="&#xf18c;" 
d="M85 182q-32 4 -53.5 31.5t-17.5 59.5q4 57 68 105q87 63 178 56q46 0 113 -20q-1 9 2.5 12.5t10.5 2.5t14.5 -3t15.5 -4.5t13 -2.5q3 -1 10 -3t11 -3t10 -3.5t10 -5t8.5 -6t7 -8t4.5 -10.5q9 -13 7.5 -28.5t-20.5 -17.5q-8 -3 -16.5 -3.5t-15.5 1t-16 5.5t-15 7.5
t-15 8.5t-14 7q1 -1 2 -4l1.5 -4.5t1.5 -4t2 -3.5t2.5 -3t3.5 -2.5t5 -1.5q52 -29 87 -9q7 3 7 -1q0 -10 -15 -19q-6 -4 -10 -3q-33 -14 -106 -7q-20 0 -20.5 -23t10.5 -36q12 -18 3 -15l-7 4q-11 4 -20.5 10.5t-23 21t-16.5 17.5q-17 14 -39 14t-34 -16q-3 -7 -4 -13.5
t-0.5 -18t0.5 -13.5q-21 11 -29 16q-6 33 -32.5 56t-58.5 17q-25 -1 -40 -24t-5 -47q7 -22 29.5 -31t41.5 1q20 9 15 33t-27 26q-16 4 -19 -11q-3 -14 10 -15q4 0 9 2q18 -9 3 -19q-17 -11 -29 -2l-3 3q-17 11 -14.5 32.5t21.5 28.5q26 13 51.5 -8t22.5 -51
q-3 -29 -26.5 -45t-49.5 -10zM463 344q10 4 14 14t2 19.5t-9.5 16.5t-18.5 6q-20 1 -27 -21.5t12 -32.5q11 -12 27 -2zM444 352q-19 6 -11 25q7 18 23 14q5 -1 9 -6q11 -12 2.5 -26t-23.5 -7zM460 371q3 7 -1 9q-6 4 -13 -4q-4 -5 6 -6l3 -1h3zM161 41q-30 4 -26 59
q0 23 2 27q14 13 23 -1.5t5 -31.5q1 -2 0.5 -12t1.5 -13q2 -4 7 -5t9.5 0t9.5 0q2 0 5 -0.5t5.5 -0.5t5 0.5t4.5 2t4 3.5v26t3 32q11 5 17.5 2.5t8.5 -12t2 -18.5t-2 -17q0 -33 -1 -39q-4 -6 -9 -6.5t-8.5 2.5t-8.5 5.5t-9 1.5q-2 0 -8.5 -2t-10 -3t-9 -1.5t-11 -0.5
t-10.5 2zM19 43q-4 6 -4 15.5t9 7.5h59q14 16 -1.5 22.5t-32.5 2.5q-18 -3 -28.5 12.5t-4.5 32.5q2 15 16.5 21.5t31.5 4.5q4 0 11.5 0.5t13 0.5t11 -1.5t8 -6t0.5 -12.5q0 -4 -3.5 -4.5t-9.5 0.5t-8 0h-14.5t-15.5 -0.5t-11.5 -5t-2.5 -14.5q8 -5 33.5 -5t34.5 -11
q9 -14 5.5 -33.5t-19.5 -26.5q-6 -3 -19 -3t-16 -1h-41zM271 43q-4 4 -4 14.5t9 8.5h59q14 16 -0.5 23t-30.5 2q-18 -4 -30 10.5t-7 32.5q5 33 54 28q30 0 35 -2q8 -4 6 -17q-1 -8 -6 -6q-46 0 -56 -1q-3 -6 -4 -10t1 -6.5t4.5 -4t8 -2t9 -0.5h10.5h6h5.5t4.5 -1
q18 -1 23 -20.5t-2 -34.5q-11 -21 -33 -18h-57zM444 91h-26q-2 -14 4.5 -21.5t20.5 -3.5h38v-3q0 -7 -0.5 -11t-3.5 -8t-8 -3q-50 0 -59 2q-14 5 -17.5 18t-3.5 33v4q0 2 -0.5 12.5t0 15t2 12.5t5.5 13t10 8q25 5 71 1q17 -6 21 -27t-3 -37q-5 -3 -11.5 -4.5t-12.5 -1
t-13.5 0.5h-13.5zM418 134q-3 -9 -1 -15.5t12 -4.5h41v7q0 17 -20.5 18.5t-31.5 -5.5z" />
    <glyph glyph-name="snapshot" unicode="&#xf18d;" 
d="M480 -32h-448q-14 0 -23 12t-9 26v303q0 27 32 27h79l19 55q4 11 14 18t22 7h171q8 0 15.5 -3t13 -9t8.5 -13l23 -55h83q32 0 32 -27v-303q0 -14 -9 -26t-23 -12zM34 0h444q2 3 2 6v298h-104l-31 75q-3 5 -8 5h-171q-5 0 -6 -3l-26 -77h-102v-298q0 -3 2 -6zM256 32
q-50 0 -85 35t-35 85t35 85t85 35t85 -35t35 -85t-35 -85t-85 -35zM256 240q-36 0 -62 -26t-26 -62t26 -62t62 -26t62 26t26 62t-26 62t-62 26z" />
    <glyph glyph-name="status-active" unicode="&#xf18e;" 
d="M256 448q106 0 181 -75t75 -181t-75 -181t-181 -75t-181 75t-75 181t75 181t181 75zM224 96l176 170l-22 22l-155 -149l-89 86l-22 -22l111 -107h1z" />
    <glyph glyph-name="status-approving" unicode="&#xf18f;" 
d="M256 448q107 0 181.5 -75t74.5 -181t-75 -181t-181 -75t-181 75t-75 181t75 181t181 75zM134 309q-5 -8 0 -16l45 -45q8 -8 16 0l2 2q8 8 0 16l-45 44q-8 8 -16 0zM90 189q0 -9 11 -11h64q11 0 11 11v3q0 11 -11 11h-64q-11 0 -11 -11v-3zM203 118q6 8 0 16l-1 2
q-8 8 -16 0l-45 -45q-8 -8 0 -16l1 -1q8 -8 16 0zM240 286q0 -11 11 -11h3q12 0 12 11v64q0 12 -12 12h-3q-11 0 -11 -12v-64zM272 38v64q0 12 -11 12h-3q-12 0 -12 -12v-64q0 -11 12 -11h3q11 0 11 11zM310 270q-8 -8 0 -16l2 -1q8 -8 16 0l45 45q8 8 0 16l-2 1q-8 8 -16 0
zM378 80q8 9 0 14l-45 45q-8 8 -16 0l-2 -1q-8 -8 0 -16l45 -45q8 -8 16 0zM422 195v3q0 12 -11 12h-64q-11 0 -11 -12v-3q0 -11 11 -11h64q11 0 11 11z" />
    <glyph glyph-name="status-deleted" unicode="&#xf190;" 
d="M256 448q106 0 181 -75t75 -181t-75 -181t-181 -75t-181 75t-75 181t75 181t181 75zM381 96l-97 94l97 94l-28 27l-97 -94l-97 94l-28 -27l97 -94l-97 -94l28 -27l97 94l97 -94z" />
    <glyph glyph-name="status-disabled" unicode="&#xf191;" 
d="M448 23l-361 361q73 64 169 64q106 0 181 -75t75 -181q0 -96 -64 -169zM64 361l361 -360q-72 -65 -169 -65q-106 0 -181 75t-75 181q0 97 64 169z" />
    <glyph glyph-name="status-light" unicode="&#xf192;" 
d="M232 40h48v-8h-48v8zM256 352q46 0 79 -33t33 -79q0 -50 -39 -84q-24 -23 -35 -44h-76q-11 21 -36 44q-38 34 -38 84q0 46 33 79t79 33zM256 288v32q-33 0 -56.5 -23.5t-23.5 -56.5h32q0 20 14 34t34 14zM256 448q106 0 181 -75t75 -181t-75 -181t-181 -75t-181 75
t-75 181t75 181t181 75zM361 142q39 41 39 98q0 60 -42 102t-102 42t-102 -42t-42 -102q0 -57 39 -98v-1q8 -7 15 -13q19 -19 26.5 -36t7.5 -41v-28q0 -10 5.5 -16.5t13.5 -6.5h74q8 0 13.5 6.5t5.5 16.5v27q0 25 7.5 42t27.5 37q6 5 13 12l0.5 0.5zM231 72q-1 3 -2 8h54
q-1 -5 -1 -8h-51z" />
    <glyph glyph-name="status-paused" unicode="&#xf193;" 
d="M256 448q106 0 181 -75t75 -181t-75 -181t-181 -75t-181 75t-75 181t75 181t181 75zM208 96v192h-32v-192h32zM336 96v192h-32v-192h32z" />
    <glyph glyph-name="status-pending" unicode="&#xf194;" 
d="M256 448q106 0 181 -75t75 -181t-75 -181t-181 -75t-181 75t-75 181t75 181t181 75zM346 90q10 10 1 22l-78 78v146q0 16 -16 16h-11q-16 0 -16 -16v-160q0 -13 11 -16l78 -78q11 -12 23 0z" />
    <glyph glyph-name="status-shutdown" unicode="&#xf195;" 
d="M256 448q106 0 181 -75t75 -181t-75 -181t-181 -75t-181 75t-75 181t75 181t181 75zM240 368v-176h32v176h-32zM256 24q73 0 124.5 51.5t51.5 124.5q0 34 -12 64.5t-34 54.5t-52 39l-14 -29q37 -18 58.5 -52.5t21.5 -76.5q0 -59 -42 -101.5t-102 -42.5t-102 42.5
t-42 101.5q0 28 9.5 53t27.5 44.5t43 31.5l-14 29q-45 -23 -71.5 -65t-26.5 -93q0 -73 51.5 -124.5t124.5 -51.5z" />
    <glyph glyph-name="status-warning" unicode="&#xf196;" 
d="M256 448q106 0 181 -75t75 -181t-75 -181t-181 -75t-181 75t-75 181t75 181t181 75zM272 64v32h-32v-32h32zM272 128v192h-32v-192h32z" />
    <glyph glyph-name="subnet" unicode="&#xf197;" 
d="M448 96q26 0 45 -19t19 -45t-19 -45t-45 -19t-45 19t-19 45q0 7 2 15l-130 74l-130 -75q2 -7 2 -14q0 -26 -19 -45t-45 -19t-45 19t-19 45t19 45t45 19q28 0 48 -22l129 75v141q-21 5 -35 22.5t-14 40.5q0 26 19 44.5t45 18.5q27 0 45.5 -19t18.5 -46q0 -21 -13.5 -38
t-33.5 -22v-142l128 -74q19 21 47 21zM64 0q13 0 22.5 9.5t9.5 22.5t-9.5 22.5t-22.5 9.5t-22.5 -9.5t-9.5 -22.5t9.5 -22.5t22.5 -9.5zM224 352q0 -13 9 -22.5t22.5 -9.5t23 9.5t9.5 22.5t-9 22.5t-22.5 9.5t-23 -9.5t-9.5 -22.5zM448 0q13 0 22.5 9.5t9.5 22.5t-9.5 22.5
t-22.5 9.5t-22.5 -9.5t-9.5 -22.5t9.5 -22.5t22.5 -9.5z" />
    <glyph glyph-name="swf" unicode="&#xf198;" 
d="M404 448l95 -95h-76q-8 0 -13.5 5.5t-5.5 12.5v77zM496 332h9v-345q0 -21 -15 -36t-36 -15h-267q-21 0 -36 15t-15 36v26h25v-26q0 -10 7.5 -17.5t18.5 -7.5h267q11 0 18.5 7.5t7.5 17.5v320h-65q-16 0 -29.5 8t-21 22t-7.5 29v2v54h-170q-11 0 -18.5 -7.5t-7.5 -17.5
v-154h-25v154q0 21 15 36t36 15h195v-80v-2q0 -13 10 -23t23 -11h81zM384 243q21 0 36 -15t15 -36v-128q0 -21 -15 -36t-36 -15h-333q-21 0 -36 15t-15 36v128q0 21 15 36t36 15h333zM53 98q14 -11 32 -11h3q7 0 12 3t5 9q1 0 1 1q0 5 -4 8q-9 8 -21 12q-27 11 -27 33v2
q0 15 12 24q14 9 30 9h3h2q14 0 26 -5v-23q-11 7 -24 7q-2 0 -4 -1h-1q-7 0 -14 -3q-5 -3 -5 -9q0 -5 4 -8q8 -7 18 -11q14 -5 24 -15q7 -9 7 -19v-1v-2q0 -15 -12 -24q-14 -9 -31 -9q-1 0 -3 1q-1 -1 -2 -1q-16 0 -31 7v26zM301 185l-31 -116h-27l-20 77q-2 6 -2 13
q0 -7 -2 -13l-20 -77h-29l-31 116h27l17 -79q2 -6 2 -13q0 7 2 14l22 78h25l20 -79l2 -12q0 6 2 12l16 79h27zM382 165h-41v-30h38v-20h-38v-46h-26v116h67v-20z" />
    <glyph glyph-name="system-information" unicode="&#xf199;" 
d="M337 448l130 -132v-380h-416v512h286zM339 399v-79h80zM83 -32h352v320h-128v128h-224v-448zM194.5 250q-23.5 0 -40.5 16.5t-17 40.5q0 12 5 22.5t12.5 18t18 12t22.5 4.5q23 0 40 -16.5t17 -40.5t-17 -40.5t-40.5 -16.5zM195 341q-15 0 -25 -10t-10 -24t10 -24
t24.5 -10t24.5 10t10 24q0 7 -2.5 13.5t-7.5 11t-11 7t-13 2.5zM195 341zM252 156l-10 62l-28 9l7 22l41 -14l13 -75zM252 156zM137 156l-22 4l12 76l41 13l7 -22l-28 -9zM137 156zM311 155v23h92v-23h-92zM114 109v23h289v-23h-289zM114 63v23h289v-23h-289zM114 18v23h289
v-23h-289z" />
    <glyph glyph-name="template-list" unicode="&#xf19a;" 
d="M189 197h241v-203h-241v203zM342 165h-68v-37h68v37zM398 26v139h-24v-69h-132v69h-21v-139h177zM368 307q60 -3 102 -48.5t42 -108.5q0 -76 -56 -124q-2 -2 -6 -4.5t-5 -3.5v41q35 38 35 91q0 51 -32 87t-80 38q-20 0 -27 18q-15 30 -41.5 47t-59.5 17q-44 0 -76 -31
t-36 -76q0 -10 -6.5 -17.5t-15.5 -10.5q-11 -3 -21 -8t-18.5 -12t-14.5 -15.5t-10.5 -18t-7 -20t-2.5 -22.5q0 -39 28.5 -67.5t69.5 -31.5h36h4v-32h-4h-40q-54 3 -91 41t-37 90q0 45 27 80t69 47q5 58 46.5 97.5t97.5 39.5q43 0 77.5 -22.5t52.5 -60.5z" />
    <glyph glyph-name="tfcloud" unicode="&#xf19b;" 
d="M335 221l98 57l-191 111v-345l-107 62l81 47q0 1 -1 2.5t-4.5 4.5t-8 5t-11 2t-13.5 -4l-99 -57l191 -111v345l107 -62l-81 -47l0.5 -1t2.5 -3t4.5 -4t6 -3.5t7 -2t8.5 0.5t10 3zM0 192q0 70 34.5 128.5t93 93t128.5 34.5q106 0 181 -75t75 -181t-75 -181t-181 -75
t-181 75t-75 181z" />
    <glyph glyph-name="ticket" unicode="&#xf19c;" 
d="M486 369q5 -6 0 -11l-205 -204l-2 -1l-115 -64q-2 -1 -4 -1q-3 0 -6 2q-4 4 -1 9l61 118l209 205q6 5 11 0zM270 166l-1 -1l-43 42h1l-26 -50q4 -15 18 -20zM462 -47h-412q-14 0 -23.5 9.5t-9.5 23.5v412q0 9 4.5 16.5t12 12t16.5 4.5h206v-30h-206q-3 0 -3 -3v-412
q0 -3 3 -3h412q3 0 3 3v204h30v-204q0 -5 -1.5 -10.5t-4.5 -9.5t-7 -7t-9.5 -4.5t-10.5 -1.5z" />
    <glyph glyph-name="tiff" unicode="&#xf19d;" 
d="M404 448l95 -95h-76q-8 0 -13.5 5.5t-5.5 12.5v77zM496 332h9v-345q0 -21 -15 -36t-36 -15h-267q-21 0 -36 15t-15 36v26h25v-26q0 -10 7.5 -17.5t18.5 -7.5h267q11 0 18.5 7.5t7.5 17.5v320h-65q-16 0 -29.5 8t-21 22t-7.5 29v2v54h-170q-11 0 -18.5 -7.5t-7.5 -17.5
v-154h-25v154q0 21 15 36t36 15h195v-80v-2q0 -13 10 -23t23 -11h81zM384 243q21 0 36 -15t15 -36v-128q0 -21 -15 -36t-36 -15h-333q-21 0 -36 15t-15 36v128q0 21 15 36t36 15h333zM154 165h-34v-96h-25v96h-33v20h92v-20zM205 166h-11v-76h11v-20h-46v20h10v76h-10v20h46
v-20zM287 165h-41v-30h38v-20h-38v-46h-26v116h66zM373 165h-42v-30h39v-20h-39v-46h-24v116h66v-20z" />
    <glyph glyph-name="topology" unicode="&#xf19e;" 
d="M464 62q21 -6 34.5 -23t13.5 -39q0 -17 -8.5 -32t-23.5 -23.5t-32 -8.5t-32 8.5t-23.5 23.5t-8.5 32q0 22 13.5 39t34.5 23v115h-160v-115q21 -6 34.5 -23t13.5 -39q0 -26 -19 -45t-45 -19t-45 19t-19 45q0 22 13.5 39t34.5 23v115h-160v-115q21 -6 34.5 -23t13.5 -39
q0 -26 -19 -45t-45 -19t-45 19t-19 45q0 22 13.5 39t34.5 23v116q0 12 9.5 21t22.5 9h160v114q-14 4 -24.5 13t-17 21.5t-6.5 27.5q0 26 19 45t45.5 19t45 -19t18.5 -45q0 -22 -13.5 -39t-34.5 -23v-114h160q13 0 22.5 -9t9.5 -21v-116zM96 0q0 13 -9.5 22.5t-22.5 9.5
t-22.5 -9.5t-9.5 -22.5t9.5 -22.5t22.5 -9.5t22.5 9.5t9.5 22.5zM288 0q0 13 -9.5 22.5t-22.5 9.5t-22.5 -9.5t-9.5 -22.5t9.5 -22.5t22.5 -9.5t22.5 9.5t9.5 22.5zM448 -32q13 0 22.5 9.5t9.5 22.5t-9.5 22.5t-22.5 9.5q-9 0 -16 -4.5t-11.5 -11.5t-4.5 -16
q0 -13 9.5 -22.5t22.5 -9.5z" />
    <glyph glyph-name="txt" unicode="&#xf19f;" 
d="M404 448l95 -95h-76h-1q-7 0 -12.5 5.5t-5.5 12.5v77zM496 332h9v-345q0 -21 -15 -36t-36 -15h-267q-21 0 -36 15t-15 36v26h25v-26q0 -10 7.5 -17.5t18.5 -7.5h267q11 0 18.5 7.5t7.5 17.5v320h-65q-16 0 -29.5 8t-21 22t-7.5 29v2v54h-170q-11 0 -18.5 -7.5t-7.5 -17.5
v-154h-25v154q0 21 15 36t36 15h195v-80v-2q0 -13 10 -23t23 -11h81zM384 243q21 0 36 -15t15 -36v-128q0 -21 -15 -36t-36 -15h-333q-21 0 -36 15t-15 36v128q0 21 15 36t36 15h333zM160 165h-32v-96h-26v96h-33v20h91v-20zM269 69h-30l-20 39q-2 3 -3 7q-1 -4 -2 -7
l-21 -39h-30l37 58l-34 58h30l18 -35q2 -5 3 -10l4 10l19 35h28l-35 -57zM366 165h-33v-96h-26v96h-32v20h91v-20z" />
    <glyph glyph-name="ubuntu" unicode="&#xf1a0;" 
d="M291 321q-27 0 -50 -11l-42 73q43 22 92 22q19 0 38 -4v-6q0 -31 21.5 -53t52.5 -22q24 0 43 14q45 -52 50 -119l-84 -3q-5 46 -40 77.5t-81 31.5zM403 341q-22 0 -37.5 15.5t-15.5 38.5q0 14 7 26.5t19.5 19.5t26.5 7q22 0 37.5 -15.5t15.5 -38t-15.5 -38t-37.5 -15.5z
M168 198q0 -59 46 -96l-41 -74q-56 39 -78 104q33 22 33 61q0 42 -35 64q20 68 78 110l44 -72q-47 -37 -47 -97zM53 140q-14 0 -26.5 7t-19.5 19.5t-7 26.5q0 23 15.5 38.5t37.5 15.5t38 -15.5t16 -38t-16 -38t-38 -15.5zM291 75q47 0 81.5 31.5t39.5 78.5l84 -2
q-5 -73 -56 -128q-16 9 -34 9q-29 0 -50.5 -20t-23.5 -49q-21 -4 -41 -4q-48 0 -91 21l42 73q23 -10 49 -10zM406 43q22 0 37.5 -15.5t15.5 -38t-15.5 -38t-37.5 -15.5t-37.5 15.5t-15.5 38t15.5 38t37.5 15.5z" />
    <glyph glyph-name="upload" unicode="&#xf1a1;" 
d="M256 -64q-106 0 -181 75t-75 181t75 181t181 75t181 -75t75 -181t-75 -181t-181 -75zM256 416q-93 0 -158.5 -65.5t-65.5 -158.5t65.5 -158.5t158.5 -65.5t158.5 65.5t65.5 158.5t-65.5 158.5t-158.5 65.5zM256 328l112 -112h-80v-160h-64v160h-80z" />
    </font>
</defs>
</svg>
